<svg width="79" height="81" viewBox="0 0 79 81" fill="none" xmlns="http://www.w3.org/2000/svg">
<path d="M78.7003 44.3969C78.6177 50.2961 75.9233 55.4614 73.5046 60.6895C72.0087 63.8319 70.0016 66.6063 67.9403 69.3913C66.1894 71.7348 63.9996 73.0506 61.0882 74.8486C58.8597 76.225 56.7053 77.142 54.1563 77.7523C53.1458 78.0001 52.1435 78.2715 51.1401 78.5468C49.2975 79.0525 47.4552 79.5596 45.6132 80.0674C35.4923 82.6632 25.1752 78.1922 16.471 73.287C14.5923 72.1493 12.8164 70.8703 11.0009 69.6391C7.3086 66.881 5.44757 62.3444 3.41874 58.3617C-0.605936 50.1796 -0.906526 41.0695 1.62457 32.4315C5.52178 19.9862 14.5401 11.452 25.5323 5.0252C33.3066 0.772463 43.6533 -0.334366 52.1507 2.1063C69.4175 7.71678 79.1286 27.2393 78.7003 44.3969Z" fill="#0D0806"/>
</svg>
