<svg xmlns="http://www.w3.org/2000/svg" fill="none" viewBox="0 0 14 14" id="externallink"><path fill="#ffffff" fill-rule="evenodd" d="M3.04878 5C2.46888 5 1.99878 5.4701 1.99878 6.05V10.95C1.99878 11.5299 2.46888 12 3.04878 12H7.94878C8.52868 12 8.99878 11.5299 8.99878 10.95V7.43023C8.99878 7.15409 9.22264 6.93023 9.49878 6.93023C9.77492 6.93023 9.99878 7.15409 9.99878 7.43023V10.95C9.99878 12.0822 9.08096 13 7.94878 13H3.04878C1.9166 13 0.998779 12.0822 0.998779 10.95V6.05C0.998779 4.91782 1.9166 4 3.04878 4H6.56855C6.84469 4 7.06855 4.22386 7.06855 4.5C7.06855 4.77614 6.84469 5 6.56855 5H3.04878Z" clip-rule="evenodd" class="color000000 svgShape"></path><path fill="#ffffff" fill-rule="evenodd" d="M7.50288 1.5C7.50288 1.22386 7.72674 1 8.00288 1L12.3084 1L12.3192 1.00047C12.6877 1.01645 12.9831 1.31069 13.0007 1.67906L13.0012 1.69093V5.94909C13.0012 6.22523 12.7774 6.44909 12.5012 6.44909C12.2251 6.44909 12.0012 6.22523 12.0012 5.94909V2.7261L7.85233 6.87501C7.65707 7.07027 7.34049 7.07027 7.14523 6.87501C6.94996 6.67975 6.94996 6.36316 7.14523 6.1679L11.3131 2L8.00288 2C7.72674 2 7.50288 1.77614 7.50288 1.5Z" clip-rule="evenodd" class="color000000 svgShape"></path></svg>