<svg width="40" height="40" viewBox="0 0 40 40" fill="none" xmlns="http://www.w3.org/2000/svg">
<path fill-rule="evenodd" clip-rule="evenodd" d="M23 11L9 11L9 29L23 29L23 24H21V27H11L11 13L21 13V16L23 16V11ZM25.0862 12.7296L26.9138 12L31 20L26.9138 28L25.0862 27.2704L28.1887 21L16 21V19L28.1887 19L25.0862 12.7296Z" fill="url(#paint0_linear_59_13)"/>
<path fill-rule="evenodd" clip-rule="evenodd" d="M23 11L9 11L9 29L23 29L23 24H21V27H11L11 13L21 13V16L23 16V11ZM25.0862 12.7296L26.9138 12L31 20L26.9138 28L25.0862 27.2704L28.1887 21L16 21V19L28.1887 19L25.0862 12.7296Z" fill="white" fill-opacity="0.2"/>
<defs>
<linearGradient id="paint0_linear_59_13" x1="9" y1="11" x2="32.969" y2="25.8141" gradientUnits="userSpaceOnUse">
<stop stop-color="#FF00D6"/>
<stop offset="0.529" stop-color="#5768BE"/>
<stop offset="1" stop-color="#61E8AF"/>
</linearGradient>
</defs>
</svg>
