<svg width="155" height="24" viewBox="0 0 155 24" fill="none" xmlns="http://www.w3.org/2000/svg">
<g clip-path="url(#clip0_58_3874)">
<path d="M5.89756 10.6104L11.6062 18.6182H9.1748L4.55205 11.9844L2.06953 14.4411V18.6182H0.0866699V0.114288H2.06953V11.9568L8.43516 5.40169H11.2088L5.89756 10.6104Z" fill="black"/>
<path d="M17.1252 17.0316C18.9035 17.0316 20.1791 16.2915 20.9532 14.8111H23.121C22.6616 16.0109 21.9338 16.9804 20.9375 17.7206C19.9431 18.4607 18.6635 18.8308 17.0976 18.8308C15.1069 18.8308 13.487 18.1694 12.2388 16.8466C11.0212 15.5611 10.4133 13.9479 10.4133 12.008C10.4133 10.0533 10.9936 8.44106 12.1562 7.17334C13.3886 5.8505 14.9908 5.18909 16.9639 5.18909C18.9359 5.18909 20.5381 5.8505 21.7715 7.17334C22.9331 8.44106 23.5144 10.0533 23.5144 12.008V12.8033H12.4473C12.589 14.0188 13.0739 15.0227 13.903 15.8151C14.7469 16.6261 15.821 17.0316 17.1252 17.0316ZM16.9639 6.9883C15.7492 6.9883 14.7292 7.36822 13.903 8.1261C13.126 8.84854 12.65 9.79047 12.4749 10.9529H21.4568C21.2807 9.79047 20.8047 8.84854 20.0286 8.1261C19.2025 7.36822 18.1805 6.9883 16.9639 6.9883Z" fill="black"/>
<path d="M29.7231 17.0316C31.5014 17.0316 32.777 16.2915 33.5511 14.8111H35.7189C35.2595 16.0109 34.5317 16.9804 33.5354 17.7206C32.541 18.4607 31.2614 18.8308 29.6955 18.8308C27.7048 18.8308 26.0849 18.1694 24.8367 16.8466C23.6191 15.5611 23.0112 13.9479 23.0112 12.008C23.0112 10.0533 23.5915 8.44106 24.7541 7.17334C25.9865 5.8505 27.5887 5.18909 29.5618 5.18909C31.5338 5.18909 33.136 5.8505 34.3694 7.17334C35.531 8.44106 36.1123 10.0533 36.1123 12.008V12.8033H25.0452C25.1869 14.0188 25.6718 15.0227 26.5009 15.8151C27.3448 16.6261 28.4189 17.0316 29.7231 17.0316ZM29.5618 6.9883C28.3471 6.9883 27.3271 7.36822 26.5009 8.1261C25.7239 8.84854 25.2479 9.79047 25.0728 10.9529H34.0547C33.8786 9.79047 33.4026 8.84854 32.6265 8.1261C31.8004 7.36822 30.7784 6.9883 29.5618 6.9883Z" fill="black"/>
<path d="M38.4101 7.51586C39.4665 5.96468 41.0431 5.18909 43.1391 5.18909C45.0403 5.18909 46.5816 5.8505 47.7618 7.17334C48.9421 8.47846 49.5322 10.0897 49.5322 12.008C49.5322 13.9292 48.9421 15.5424 47.7618 16.8466C46.5816 18.1694 44.9961 18.8308 43.0053 18.8308C41.0166 18.8308 39.4851 18.0464 38.4101 16.4765V23.8505H36.4272V5.40169H38.4101V7.51586ZM42.8755 6.9883C41.4483 6.9883 40.3202 7.48239 39.492 8.46861C38.6993 9.40365 38.3039 10.5828 38.3039 12.008C38.3039 13.4361 38.6993 14.6172 39.492 15.5513C40.3202 16.5385 41.4483 17.0316 42.8755 17.0316C44.284 17.0316 45.4269 16.5385 46.3062 15.5513C47.1343 14.6172 47.5494 13.4361 47.5494 12.008C47.5494 10.5828 47.1343 9.40365 46.3062 8.46861C45.4269 7.48239 44.284 6.9883 42.8755 6.9883Z" fill="black"/>
<path d="M53.5145 5.40169H55.4973V18.6182H53.5145V5.40169ZM55.576 0.590668V3.18122H53.4358V0.590668H55.576Z" fill="black"/>
<path d="M58.7983 5.40169V7.46468C59.2724 6.82984 59.8537 6.29145 60.5412 5.8505C61.2277 5.40956 62.0106 5.18909 62.8899 5.18909C63.7712 5.18909 64.5285 5.3131 65.1639 5.55917C65.7983 5.80621 66.353 6.17629 66.8281 6.6694C67.9189 7.74617 68.4648 9.16448 68.4648 10.9253V18.6182H66.4858V10.9804C66.4858 9.76291 66.1416 8.79342 65.4551 8.07098C64.7675 7.34952 63.8784 6.9883 62.7876 6.9883C61.6782 6.9883 60.7349 7.35838 59.9589 8.09854C59.1848 8.85739 58.7983 9.8259 58.7983 11.004V18.6182H56.8154V5.40169H58.7983Z" fill="black"/>
<path d="M74.5912 18.6182V7.14578H71.8962V5.40169H74.5912V0.669403H76.5741V5.40169H79.6113V7.14578H76.5741V18.6182H74.5912Z" fill="black"/>
<path d="M85.3921 5.18909C87.3641 5.18909 88.9664 5.8505 90.1997 7.17334C91.3613 8.44106 91.9426 10.0533 91.9426 12.008C91.9426 13.9666 91.3613 15.5789 90.1997 16.8466C88.9664 18.1694 87.3641 18.8308 85.3921 18.8308C83.4191 18.8308 81.8168 18.1694 80.5844 16.8466C79.4219 15.5789 78.8416 13.9666 78.8416 12.008C78.8416 10.0533 79.4219 8.44106 80.5844 7.17334C81.8168 5.8505 83.4191 5.18909 85.3921 5.18909ZM85.3921 17.0316C86.8183 17.0316 87.9464 16.5385 88.7755 15.5513C89.5673 14.6172 89.9637 13.4361 89.9637 12.008C89.9637 10.5828 89.5673 9.40365 88.7755 8.46861C87.9464 7.48239 86.8183 6.9883 85.3921 6.9883C83.9679 6.9883 82.8407 7.48239 82.0126 8.46861C81.2198 9.40365 80.8244 10.5828 80.8244 12.008C80.8244 13.4361 81.2198 14.6172 82.0126 15.5513C82.8407 16.5385 83.9679 17.0316 85.3921 17.0316Z" fill="black"/>
<path d="M101.979 18.6182V16.5552C101.504 17.1911 100.923 17.7285 100.236 18.1694C99.5488 18.6103 98.7649 18.8308 97.8836 18.8308C97.0043 18.8308 96.248 18.7068 95.6136 18.4607C94.9782 18.2147 94.4235 17.8446 93.9494 17.3505C92.8576 16.2747 92.3127 14.8564 92.3127 13.0946V5.40169H94.2917V13.0395C94.2917 14.258 94.6349 15.2275 95.3224 15.9489C96.009 16.6714 96.8981 17.0316 97.9899 17.0316C99.0993 17.0316 100.042 16.6615 100.819 15.9214C101.592 15.1635 101.979 14.195 101.979 13.0159V5.40169H103.962V18.6182H101.979Z" fill="black"/>
<path d="M112.254 5.18909V7.17334H112.014C110.589 7.17334 109.427 7.74617 108.528 8.88987C107.683 9.98436 107.261 11.2895 107.261 12.8033V18.6182H105.278V5.40169H107.261V8.65365C107.683 7.27865 108.599 6.26586 110.007 5.61428C110.589 5.33082 111.294 5.18909 112.12 5.18909H112.254Z" fill="black"/>
<path d="M112.277 5.40169H114.26V18.6182H112.277V5.40169ZM114.338 0.590668V3.18122H112.198V0.590668H114.338Z" fill="black"/>
<path d="M123.344 8.94499C123.168 7.56999 122.062 6.882 120.027 6.882C117.994 6.882 116.978 7.51586 116.978 8.78358C116.978 9.31409 117.192 9.71566 117.623 9.9883C118.056 10.2619 118.597 10.4863 119.248 10.6615C119.901 10.8377 120.61 11.0001 121.376 11.1497C122.142 11.2993 122.85 11.5109 123.501 11.7836C124.154 12.0572 124.695 12.4322 125.126 12.9096C125.559 13.385 125.775 14.0375 125.775 14.8663C125.775 16.1527 125.289 17.1359 124.319 17.8151C123.351 18.4922 122.039 18.8308 120.385 18.8308C118.624 18.8308 117.226 18.3899 116.187 17.508C115.235 16.7344 114.724 15.7206 114.653 14.4686H116.714C116.837 15.6842 117.525 16.5031 118.776 16.9253C119.232 17.067 119.685 17.1379 120.133 17.1379C120.584 17.1379 121.003 17.1123 121.388 17.0592C121.776 17.007 122.155 16.9096 122.525 16.7678C123.369 16.4322 123.792 15.8603 123.792 15.0513C123.792 14.5031 123.576 14.0848 123.143 13.7954C122.712 13.504 122.172 13.2668 121.522 13.0828C120.871 12.8968 120.163 12.7285 119.398 12.5789C118.631 12.4292 117.922 12.2226 117.269 11.9568C116.618 11.692 116.077 11.3308 115.644 10.8741C115.213 10.4155 114.999 9.77964 114.999 8.96861C114.999 7.77176 115.434 6.84263 116.305 6.18121C117.176 5.5198 118.466 5.18909 120.177 5.18909C121.794 5.18909 123.07 5.57787 124.005 6.35444C124.781 7.00602 125.23 7.86921 125.354 8.94499H123.344Z" fill="black"/>
<path d="M128.177 7.40956C129.058 5.92924 130.396 5.18909 132.19 5.18909C133.071 5.18909 133.886 5.42334 134.633 5.88987C135.383 6.35739 135.969 7.01389 136.392 7.85838C136.99 6.74814 137.923 5.95582 139.193 5.48043C139.702 5.28653 140.277 5.18909 140.92 5.18909C141.565 5.18909 142.181 5.31802 142.769 5.57491C143.359 5.82983 143.884 6.19499 144.343 6.6694C145.329 7.72747 145.822 9.04932 145.822 10.634V18.6182H143.839V10.6891C143.839 9.59755 143.531 8.69893 142.915 7.99224C142.298 7.32295 141.515 6.9883 140.566 6.9883C139.561 6.9883 138.725 7.31409 138.056 7.96468C137.35 8.63397 136.998 9.55129 136.998 10.7166V18.6182H135.019V10.6891C135.019 9.59755 134.71 8.69893 134.094 7.99224C133.478 7.32295 132.694 6.9883 131.742 6.9883C130.739 6.9883 129.904 7.31409 129.236 7.96468C128.529 8.63397 128.177 9.55129 128.177 10.7166V18.6182H126.194V5.40169H128.177V7.40956Z" fill="black"/>
<path d="M150.883 0.354401C151.36 0.354401 151.802 0.440031 152.209 0.610306C152.615 0.781566 152.966 1.01975 153.264 1.32684C153.56 1.63196 153.791 1.99416 153.956 2.41346C154.123 2.83373 154.208 3.28944 154.208 3.7796C154.208 4.27566 154.123 4.73235 153.956 5.14968C153.791 5.56503 153.56 5.92527 153.264 6.23235C152.966 6.53944 152.615 6.77861 152.209 6.94889C151.802 7.12015 151.36 7.20479 150.883 7.20479C150.405 7.20479 149.964 7.12015 149.557 6.94889C149.15 6.77861 148.799 6.53944 148.503 6.23235C148.206 5.92527 147.974 5.56503 147.807 5.14968C147.639 4.73235 147.555 4.27566 147.555 3.7796C147.555 3.28944 147.639 2.83373 147.807 2.41346C147.974 1.99416 148.206 1.63196 148.503 1.32684C148.799 1.01975 149.15 0.781566 149.557 0.610306C149.964 0.440031 150.405 0.354401 150.883 0.354401ZM150.883 0.834716C150.476 0.834716 150.098 0.909519 149.75 1.05913C149.404 1.20873 149.105 1.41542 148.853 1.67724C148.601 1.93708 148.405 2.2481 148.263 2.61031C148.121 2.97054 148.051 3.36031 148.051 3.7796C148.051 4.19692 148.121 4.58668 148.263 4.94889C148.405 5.31109 148.601 5.62409 148.853 5.8859C149.105 6.14574 149.404 6.35046 149.75 6.50007C150.098 6.64771 150.476 6.72054 150.883 6.72054C151.29 6.72054 151.666 6.64771 152.012 6.50007C152.361 6.35046 152.662 6.14574 152.913 5.8859C153.165 5.62409 153.362 5.31109 153.504 4.94889C153.645 4.58668 153.716 4.19692 153.716 3.7796C153.716 3.36031 153.645 2.97054 153.504 2.61031C153.362 2.2481 153.165 1.93708 152.913 1.67724C152.662 1.41542 152.361 1.20873 152.012 1.05913C151.666 0.909519 151.29 0.834716 150.883 0.834716ZM150.931 1.70873C151.297 1.70873 151.565 1.80125 151.733 1.98432C151.9 2.16838 151.985 2.43708 151.985 2.79141V2.88983C151.985 3.13983 151.942 3.34653 151.855 3.51188C151.769 3.67724 151.625 3.79535 151.426 3.86621C151.631 3.93708 151.774 4.05519 151.859 4.22054C151.943 4.38393 151.985 4.58865 151.985 4.83472V5.2796C151.985 5.38787 151.99 5.48826 152.001 5.58275C152.01 5.67724 152.041 5.7668 152.091 5.85046H151.54C151.509 5.7796 151.487 5.70775 151.477 5.63393C151.467 5.55814 151.462 5.44003 151.462 5.2796V4.83472C151.462 4.56208 151.4 4.37802 151.277 4.28353C151.156 4.18708 150.983 4.13787 150.757 4.13787H150.399V5.85046H149.876V1.70873H150.931ZM150.836 3.6418C151.035 3.6418 151.187 3.59751 151.292 3.50794C151.4 3.41641 151.454 3.2481 151.454 3.00401V2.85046C151.454 2.63787 151.412 2.47546 151.332 2.36227C151.25 2.25007 151.108 2.19298 150.903 2.19298H150.399V3.6418H150.836Z" fill="black"/>
</g>
<defs>
<clipPath id="clip0_58_3874">
<rect width="154.286" height="24" fill="white"/>
</clipPath>
</defs>
</svg>
