<svg width="156" height="79" viewBox="0 0 156 79" fill="none" xmlns="http://www.w3.org/2000/svg">
<path d="M19.3205 46.0828C19.2662 45.9736 19.2197 45.8644 19.1654 45.7552C19.0722 45.5524 18.9946 45.3418 18.8783 45.1546C18.7851 44.9986 18.8007 44.8582 18.8783 44.7178C19.0567 44.4371 19.2429 44.1563 19.4447 43.8833C19.6076 43.6571 19.7163 43.4231 19.6619 43.1345C19.4912 42.9941 19.3361 43.0721 19.2274 43.2125C18.8239 43.7507 18.2653 43.8911 17.6368 43.8911C17.4273 43.8911 17.2721 43.9769 17.1945 44.2031C17.0238 44.7257 16.8376 45.2404 16.6669 45.7552C16.2168 47.1357 16.2479 48.5631 16.4651 49.967C16.6048 50.9029 16.9074 51.8311 17.373 52.6734C17.4894 52.8918 17.6523 53.0868 17.792 53.2818C18.1566 53.0712 18.2187 52.9542 18.0946 52.6344C18.0247 52.4706 17.9239 52.3147 17.8308 52.1587C17.6911 51.9325 17.6678 51.6985 17.7299 51.4333C17.7842 51.1915 17.8152 50.9341 17.792 50.6923C17.7532 50.24 17.8928 49.8968 18.2653 49.6394C18.5524 49.4444 18.7541 49.1792 18.8938 48.8594C19.049 48.5163 19.2973 48.2667 19.5921 48.0405C19.9102 47.7909 20.2051 47.5101 20.4767 47.2059C20.7405 46.9095 21.0431 46.8003 21.4388 46.8159C21.7104 46.8237 21.9897 46.7458 22.2535 46.6756C22.5561 46.5976 22.8432 46.5196 23.1924 46.6444C23.1536 46.8705 23.1148 47.0889 23.0838 47.3073C23.0062 47.7519 22.9363 48.1887 22.8665 48.6333C22.851 48.7424 22.851 48.8594 22.851 48.9686C22.8432 49.3976 22.851 49.8266 22.8277 50.2556C22.8122 50.5754 22.6105 50.8015 22.3932 51.0043C22.1371 51.2305 21.9354 51.4879 21.788 51.7999C21.7104 51.9637 21.5474 52.1041 21.4078 52.2289C21.2448 52.3771 21.0121 52.4707 20.8801 52.6422C20.6008 53.001 20.2284 53.1102 19.8171 53.1648C19.5378 53.2038 19.2585 53.2194 18.9791 53.2428C18.8239 53.2584 18.6688 53.2662 18.5213 53.2974C18.0635 53.391 18.0092 53.5392 18.2342 53.9526C18.8162 55.0367 19.7318 55.7933 20.6862 56.5186C21.4776 57.127 22.3622 57.595 23.2933 57.946C23.658 58.0786 24.0459 58.18 24.4339 58.2112C24.6744 58.2268 24.946 58.102 25.171 57.985C25.9081 57.6184 26.6298 57.205 27.3746 56.8462C28.7015 56.2145 30.0826 55.6919 31.5026 55.3019C32.5733 55.0133 33.6829 54.9665 34.7925 55.0523C35.196 55.0835 35.5994 55.1147 36.0029 55.1537C36.4918 55.2083 36.9108 55.0679 37.2832 54.7559C38.548 53.6952 39.6886 52.5252 40.6352 51.1603C42.2569 48.8204 43.6691 46.3714 44.9726 43.8443C46.5477 40.7947 47.9832 37.6826 49.4342 34.5784C49.6049 34.2196 49.729 33.853 49.7523 33.4552C49.2635 33.2524 49.2635 33.2368 48.829 33.3148C47.6728 33.5176 46.5167 33.5488 45.3606 33.3928C43.4828 33.1432 41.7137 32.6129 40.2317 31.3727C39.8515 31.053 39.5101 30.6708 39.2075 30.2652C38.8428 29.7816 39.0058 28.7989 39.9446 28.5883C40.0377 28.9471 40.1464 29.3136 40.224 29.6724C40.3714 30.351 40.7671 30.8424 41.3491 31.1855C42.5362 31.8797 43.7777 32.4647 45.1588 32.6753C45.5313 32.7299 45.9115 32.7377 46.2917 32.7377C47.3547 32.7377 48.4177 32.7767 49.473 32.5583C49.6127 32.5271 49.7446 32.4959 49.8842 32.4647C50.3187 32.3477 50.6136 32.0825 50.7921 31.6613C51.5059 29.9922 52.2198 28.3309 52.9647 26.6774C54.2992 23.7213 55.6261 20.7575 57.2478 17.9418C59.0246 14.861 61.1041 12.0063 63.5871 9.45586C65.5424 7.44356 67.7072 5.68085 70.1281 4.26913C71.5713 3.42677 73.0921 2.74041 74.7371 2.38162C75.3346 2.24903 75.9165 2.21003 76.5217 2.38162C77.1347 2.56101 77.546 2.9432 77.771 3.52817C77.996 4.10534 78.0658 4.69031 77.9494 5.30647C77.6856 6.7104 77.1968 8.04413 76.5916 9.33107C75.3268 12.0297 73.6508 14.471 71.9515 16.9045C70.7411 18.6438 69.4531 20.3285 68.0331 21.9118C66.3106 23.8383 64.3785 25.5152 62.2525 26.9816C60.2971 28.3231 58.3263 29.6334 56.2158 30.7254C55.7425 30.9672 55.2691 31.2167 54.7881 31.4351C54.2604 31.6769 53.9268 32.0747 53.6863 32.5895C52.9647 34.126 52.2586 35.6781 51.4749 37.1834C50.6757 38.7278 49.7989 40.2331 48.9454 41.7618C48.0608 43.3451 47.1918 44.9362 46.2839 46.504C44.864 48.9374 43.2268 51.2149 41.3025 53.2818C40.674 53.9604 39.9679 54.5687 39.3006 55.2083C39.1532 55.3487 39.0213 55.5047 38.8351 55.6997C39.0989 55.8011 39.3006 55.9025 39.5179 55.9571C40.9145 56.3159 42.319 56.6356 43.7079 57.01C46.0434 57.6418 48.3789 58.2892 50.7067 58.9443C52.2198 59.3733 53.7406 59.7477 55.3157 59.8179C56.1537 59.8569 56.9995 59.9037 57.8297 59.8179C58.5746 59.7477 59.304 59.5137 60.0411 59.3577C60.2971 59.3031 60.5454 59.1783 60.8248 59.2797C60.8791 59.5059 60.7006 59.6073 60.5765 59.7243C60.0799 60.1689 59.4902 60.4574 58.8694 60.6914C57.7133 61.136 56.5106 61.253 55.2847 61.2764C52.7862 61.3154 50.311 61.0346 47.8513 60.5822C46.7417 60.3794 45.6477 60.0597 44.5536 59.7633C42.9164 59.3265 41.287 58.8741 39.6575 58.4061C38.7575 58.1488 37.8574 57.868 36.9651 57.5794C36.4685 57.4234 36.034 57.478 35.5451 57.6808C33.4113 58.5543 31.2232 59.2563 28.9032 59.3733C27.8014 59.4279 26.6918 59.4045 25.5978 59.2095C25.0546 59.1081 24.4882 59.1159 23.9295 59.0769C23.689 59.0613 23.495 59.1549 23.3398 59.3889C23.4485 59.7555 23.5648 60.1455 23.689 60.5276C23.7821 60.824 23.7588 61.1126 23.6502 61.3934C23.3786 62.0876 23.076 62.7661 22.5794 63.3355C22.3932 63.5461 22.2458 63.7879 22.0906 64.0219C21.7259 64.5522 21.2836 64.989 20.6241 65.145C20.4922 65.1762 20.3603 65.2386 20.2361 65.3088C20.0266 65.4336 19.8094 65.4882 19.5611 65.4882C19.0257 65.4882 18.6532 65.8002 18.3196 66.1824C18.1877 66.3383 18.0791 66.5255 17.7687 66.5567C17.8385 66.3929 17.8696 66.2837 17.9239 66.1824C18.1489 65.808 18.1799 65.4258 18.0868 65.0046C18.017 64.6926 18.0015 64.365 17.9627 64.0453C17.9239 63.7645 17.8851 63.4915 17.8308 63.2185C17.7609 62.9143 17.7532 62.6101 17.8308 62.2982C17.9084 61.9706 17.9859 61.643 18.0791 61.3154C18.2886 60.5822 18.7231 60.0207 19.3749 59.6229C19.8016 59.3577 20.1818 58.9989 20.6939 58.9131C21.0353 58.8507 21.3845 58.8195 21.7337 58.8195C22.0983 58.8195 22.4553 58.9053 22.82 58.9287C23.0062 58.9443 23.1924 58.9053 23.3941 58.8195C23.1614 58.7025 22.9363 58.5621 22.6958 58.4685C21.8113 58.1332 20.9965 57.6652 20.2361 57.1114C19.5611 56.62 18.8007 56.5186 18.0015 56.542C17.854 56.542 17.7066 56.6122 17.5204 56.6668C17.5747 57.0334 17.6213 57.3766 17.6678 57.7198C17.7687 58.3672 17.6989 58.9755 17.2799 59.5137C16.9772 59.9037 16.6979 60.3092 16.3953 60.6914C16.2556 60.863 16.0927 61.019 15.9297 61.175C15.4642 61.604 14.9986 62.033 14.5331 62.4541C13.9977 62.9377 13.3925 63.2575 12.6709 63.3433C12.5467 63.3589 12.4148 63.3589 12.2984 63.3901C11.8872 63.5071 11.4915 63.5227 11.0569 63.4681C10.5293 63.3979 10.0405 63.6007 9.60595 63.9127C9.41973 64.0453 9.24903 64.1856 9.06281 64.3104C8.93866 64.3962 8.79899 64.4898 8.59725 64.3104C8.6826 64.1856 8.74468 64.0297 8.86106 63.9283C9.28006 63.5461 9.41973 63.0859 9.3499 62.5243C9.3111 62.2435 9.38869 61.9394 9.41197 61.6508C9.44301 61.3154 9.51284 60.98 9.49732 60.6524C9.47405 60.1611 9.5206 59.6931 9.70682 59.2485C9.94736 58.6947 10.1879 58.1332 10.475 57.6106C10.9095 56.8384 11.5846 56.3237 12.407 55.9961C12.6786 55.8869 12.958 55.7855 13.2218 55.6607C13.9279 55.3331 14.6495 55.2941 15.3866 55.5437C15.6349 55.6295 15.8987 55.6919 16.1392 55.8011C17.0548 56.2067 18.0247 56.1443 19.0179 56.2067C18.7851 55.8011 18.5136 55.4891 18.1722 55.2473C17.3186 54.6467 16.4108 54.1632 15.3556 54.015C14.9754 53.9604 14.6495 54.0306 14.3934 54.2958C14.0675 54.6311 13.6873 54.8105 13.214 54.8729C12.9269 54.9119 12.6398 55.0835 12.3915 55.2551C12.1277 55.4423 11.8639 55.5593 11.538 55.5359C10.8707 55.4891 10.2267 55.6139 9.62147 55.9103C9.35766 56.0351 9.13264 56.0195 8.86882 55.8791C8.57397 55.7231 8.24808 55.6295 7.93771 55.5203C7.73597 55.4579 7.52647 55.4189 7.32473 55.3877C6.68072 55.2863 6.13757 55.0055 5.68753 54.5141C5.50131 54.3114 5.24525 54.1632 4.99696 54.0462C4.60124 53.8668 4.35294 53.5938 4.19 53.1882C3.93394 52.5253 3.51494 51.9637 2.95627 51.5113C2.59935 51.2227 2.21139 51.0199 1.75359 50.9497C1.17165 50.8561 0.597462 50.7391 0 50.5598C0.170704 50.4974 0.333648 50.4194 0.504351 50.3804C0.72161 50.3336 0.946629 50.3102 1.17165 50.2946C1.71479 50.2478 2.25018 50.162 2.73126 49.8578C2.94076 49.7252 3.19681 49.6628 3.41407 49.538C3.6934 49.382 3.97274 49.226 4.22879 49.031C4.51588 48.8126 4.79522 48.6411 5.16766 48.5943C5.44699 48.5631 5.70305 48.4539 5.91255 48.2433C6.01342 48.1419 6.16861 48.0561 6.30827 48.0327C7.09196 47.9079 7.8834 47.7831 8.67484 47.6973C8.9309 47.6739 9.20247 47.7597 9.45853 47.8221C9.93184 47.9391 10.4052 48.0639 10.8785 48.1965C10.9871 48.2277 11.1035 48.2589 11.1888 48.3213C11.6544 48.6567 12.1044 49.0076 12.5622 49.3508C12.8183 49.538 13.0666 49.7642 13.3537 49.8968C13.6563 50.0372 13.858 50.2322 14.0054 50.5208C14.3934 51.2539 14.7426 52.0105 14.859 52.845C14.9288 53.3208 15.1616 53.586 15.6427 53.6952C16.1548 53.8122 16.6514 54.0072 17.2255 54.1944C17.1247 53.9292 17.0626 53.703 16.954 53.508C16.2246 52.1743 15.8366 50.7235 15.5651 49.2416C15.4487 48.6099 15.3478 47.9625 15.3556 47.3151C15.3556 46.1452 15.503 44.983 15.9375 43.8833C16.0694 43.5635 16.0694 43.2827 15.9375 42.9551C15.8366 42.7056 15.8366 42.4092 15.8134 42.1362C15.7978 41.8866 15.8134 41.637 15.8134 41.3016C15.4254 41.559 15.1461 41.832 15.1616 42.2298C15.1849 42.7134 14.9754 43.0643 14.6883 43.3997C14.2615 43.9067 13.8503 44.4215 13.408 44.905C13.1675 45.1702 12.8648 45.3808 12.5777 45.5992C12.407 45.7396 12.2208 45.8644 12.0036 46.0204C11.926 45.9892 11.8251 45.9424 11.6854 45.8878C12.182 45.4432 12.5157 44.9284 12.826 44.3981C13.0278 44.0471 13.1519 43.6805 13.1287 43.2749C13.0899 42.4404 13.1907 41.6214 13.3382 40.8025C13.3692 40.6309 13.3614 40.4437 13.3692 40.2331C12.5079 40.1473 11.6854 40.2331 10.8785 40.3501C10.0793 40.4593 9.26455 40.5607 8.57397 41.0364C8.43431 40.8337 8.50414 40.7323 8.64381 40.6543C8.83003 40.5529 9.00849 40.4437 9.20247 40.3657C10.1957 39.9601 11.0026 39.2971 11.763 38.5562C12.1743 38.1584 12.6165 37.7918 13.0355 37.394C13.1907 37.2536 13.3382 37.2302 13.5321 37.277C14.1374 37.4174 14.6417 37.7372 15.0995 38.1428C15.5728 38.564 15.9996 39.0319 16.4574 39.4609C17.179 40.1239 18.0713 40.4593 18.9869 40.7323C19.2041 40.8025 19.4912 40.7323 19.724 40.6465C20.2361 40.4749 20.725 40.4827 21.2448 40.6465C21.8035 40.8259 22.3777 40.9662 22.9441 41.091C23.2079 41.1456 23.495 41.1222 23.7743 41.13C23.9528 41.13 24.1313 41.13 24.2477 41.13C24.3873 41.637 24.5115 42.0894 24.6279 42.5496C24.6744 42.7368 24.7132 42.9317 24.7443 43.1267C24.7986 43.4855 24.6822 43.7897 24.4106 44.0315C23.8675 44.5151 23.3243 44.9986 22.7734 45.4744C22.6881 45.5524 22.5639 45.5836 22.463 45.6382C22.2768 45.4042 22.401 45.256 22.5329 45.1234C22.8122 44.827 23.107 44.5463 23.3864 44.2499C23.5105 44.1173 23.6192 43.9691 23.7355 43.8287C23.914 43.6181 23.914 43.3919 23.7433 43.1735C23.2933 42.5886 22.7191 42.1908 22.0052 41.9958C21.9432 41.9802 21.8733 41.9958 21.7802 41.9958C21.7802 42.1752 21.7802 42.3234 21.7802 42.4794C21.7957 42.8771 21.6095 43.1423 21.2914 43.3451C20.7482 43.6961 20.2439 44.0861 19.7861 44.5541C19.4912 44.8582 19.3593 45.1624 19.5145 45.5758C19.5766 45.7396 19.6775 45.9658 19.3438 46.0672L19.3205 46.0828ZM55.0286 30.078C55.176 30.0546 55.2536 30.0468 55.3312 30.0234C55.9364 29.8752 56.4796 29.5788 56.9995 29.2356C59.9945 27.2389 62.8732 25.1019 65.2398 22.3486C66.039 21.4204 66.846 20.5001 67.5365 19.4939C68.8556 17.6064 70.0816 15.6565 71.3696 13.7456C72.5102 12.0531 73.2939 10.189 73.9612 8.27812C74.2793 7.35777 74.4811 6.40622 74.4966 5.43127C74.5121 4.53431 74.3181 4.08194 73.162 4.01954C73.1077 4.01954 73.0534 4.01954 72.9913 4.01954C72.3861 4.07414 71.8119 4.23013 71.261 4.48752C69.9884 5.08029 68.972 6.00064 68.0021 6.98339C66.1709 8.83969 64.6113 10.9222 63.1836 13.0905C61.5464 15.5707 60.1187 18.168 58.9393 20.8901C57.7444 23.6511 56.5184 26.3966 55.3157 29.1499C55.1993 29.4228 55.145 29.727 55.0441 30.0702L55.0286 30.078ZM25.9547 58.3282C25.9625 58.375 25.9702 58.4139 25.9857 58.4607C26.3194 58.4841 26.6453 58.5309 26.9789 58.5387C28.4454 58.5777 29.8809 58.3828 31.2853 57.9928C32.1078 57.7666 32.938 57.5638 33.6907 57.1348C33.8847 57.0256 34.0554 56.9086 34.1717 56.6824C34.001 56.6278 33.8614 56.5732 33.7139 56.5342C33.0001 56.3549 32.2707 56.3627 31.5569 56.503C30.005 56.8072 28.5075 57.3142 27.0255 57.868C26.6608 58.0006 26.3194 58.1722 25.9625 58.3282H25.9547ZM5.08231 50.5208C5.08231 50.5208 5.06679 50.5754 5.05903 50.6065C5.09007 50.6299 5.12111 50.6611 5.1599 50.6689C5.78064 50.7469 6.40914 50.8171 7.02988 50.8951C7.47216 50.9497 7.93771 50.9575 8.34896 51.1057C9.80769 51.6361 11.282 52.1197 12.6631 52.8372C12.9424 52.9776 13.245 53.0712 13.5399 53.1882C13.5632 53.157 13.5787 53.1258 13.602 53.0946C13.4157 52.8762 13.2683 52.5877 13.0355 52.4551C12.407 52.0885 11.7708 51.7219 11.088 51.4801C10.2345 51.1837 9.34214 50.9419 8.44983 50.8093C7.33249 50.6455 6.19964 50.6143 5.07455 50.5208H5.08231ZM10.8785 61.9316C10.9871 61.799 11.0492 61.7522 11.088 61.682C11.569 60.746 12.1432 59.8647 12.764 59.0145C12.8881 58.8429 13.0743 58.7025 13.2606 58.5855C13.7028 58.3048 14.1529 58.0474 14.6029 57.7822L14.5564 57.6964C14.1063 57.8602 13.6408 57.9616 13.2606 58.3126C13.02 58.5387 12.7174 58.7025 12.4536 58.9053C12.2441 59.0691 11.9958 59.2095 11.8561 59.4201C11.3595 60.1455 10.8785 60.8942 10.8785 61.9316ZM19.049 51.6283C19.049 51.6283 19.111 51.6439 19.1343 51.6517C19.1654 51.5659 19.2041 51.4801 19.2352 51.3943C19.4369 50.9185 19.5766 50.4116 19.918 50.0138C20.2749 49.6004 20.6396 49.1948 20.9888 48.7814C21.2526 48.4695 21.4931 48.1419 21.7414 47.8221C21.7181 47.7987 21.6949 47.7831 21.6793 47.7597C21.2526 48.0405 20.8103 48.2979 20.4689 48.6878C20.0809 49.1324 19.7163 49.5926 19.3593 50.0528C19.2507 50.1932 19.1731 50.3726 19.1421 50.5442C19.08 50.9029 19.0645 51.2617 19.0334 51.6283H19.049ZM21.2216 60.6836C21.2216 60.6836 21.175 60.6446 21.1517 60.6212C20.7482 60.8084 20.4146 61.0658 20.1818 61.4558C20.1042 61.5884 19.9878 61.7054 19.8637 61.7834C19.5921 61.9628 19.4292 62.2201 19.3438 62.5243C19.2507 62.8441 19.1576 63.1717 19.0955 63.4993C19.049 63.7489 19.0412 63.9985 19.1343 64.3027C19.4447 63.4993 19.7163 62.7505 20.0111 62.0174C20.0887 61.8302 20.1896 61.6352 20.3292 61.4948C20.6086 61.2062 20.9189 60.9566 21.2138 60.6914L21.2216 60.6836Z" fill="black"/>
<path d="M84.9718 41.9099C85.3055 42.1516 85.5615 42.3544 85.8254 42.526C86.7409 43.1188 87.6953 43.657 88.5876 44.2887C89.8912 45.2247 91.0008 46.3634 91.9319 47.6972C94.539 51.4488 97.1694 55.177 99.7998 58.9052C100.599 60.0439 101.406 61.1749 102.236 62.2902C102.803 63.0546 103.54 63.6005 104.479 63.8267C104.719 63.8891 104.967 63.9749 105.022 64.3025C104.882 64.4507 104.704 64.4429 104.525 64.4195C103.02 64.2167 101.569 63.7955 100.18 63.195C99.6756 62.9766 99.2877 62.6022 98.954 62.1888C98.4652 61.5804 97.9686 60.9643 97.5263 60.3091C95.2761 56.9631 92.863 53.734 90.4344 50.5206C88.9989 48.6253 87.5634 46.7378 86.0193 44.9361C85.0262 43.7818 83.8002 42.9238 82.4889 42.1828C82.4035 42.136 82.3104 42.097 82.2173 42.0658C81.7207 41.8865 81.5966 41.9099 81.325 42.3622C81.0069 42.8926 80.7198 43.4386 80.4404 43.9923C79.1369 46.5896 77.8333 49.1947 76.5375 51.7919C76.2116 52.4471 75.878 53.0945 75.5599 53.7496C75.3892 54.1084 75.2805 54.4828 75.3581 54.8884C75.6607 55.0444 76.0642 54.787 76.3125 55.2004C76.1651 55.3174 76.0409 55.45 75.8935 55.528C74.8693 56.0817 73.9149 56.7525 72.9683 57.4233C72.6346 57.6572 72.4406 57.626 72.1768 57.3063C71.8509 56.9163 71.6802 56.4795 71.8587 55.9803C72.0837 55.3486 72.2777 54.6934 72.5726 54.0928C73.977 51.2148 75.3892 48.3367 76.8324 45.4821C78.1747 42.8068 79.5559 40.1549 80.9293 37.4953C82.4501 34.547 83.9709 31.6066 85.4995 28.6583C85.6159 28.4321 85.7245 28.206 85.8564 27.9876C86.1745 27.4728 86.5858 27.0516 87.1599 26.841C88.029 26.5212 88.898 26.2249 89.7748 25.9285C90.0076 25.8505 90.2636 25.8193 90.5197 26.0221C90.4266 26.1079 90.3645 26.1937 90.2714 26.2483C89.8214 26.529 89.4877 26.9268 89.2394 27.3948C88.673 28.4243 88.0988 29.4617 87.5401 30.499C86.3685 32.7063 85.1969 34.9214 84.0407 37.1365C83.5441 38.0802 83.0631 39.0396 82.5897 39.9912C82.4656 40.2407 82.3958 40.5137 82.2949 40.8023C82.9467 40.9115 83.5519 40.8413 84.1571 40.7867C87.3384 40.4903 90.38 39.5622 93.4139 38.6106C94.9192 38.1348 96.4245 37.6357 97.86 36.9649C101.553 35.2412 105.068 33.2133 108.195 30.5614C109.165 29.7347 110.182 28.9547 111.121 28.089C112.424 26.8956 113.712 25.6711 114.744 24.2282C116.071 22.3797 117.196 20.4064 117.677 18.1601C118.306 15.2274 117.53 12.9889 115 11.2106C113.565 10.1967 111.974 9.60391 110.22 9.40892C108.35 9.20613 106.488 9.04234 104.611 9.12813C102.919 9.20613 101.235 9.39332 99.567 9.7053C95.5555 10.4541 91.8 11.9048 88.2307 13.8781C85.8486 15.1962 83.6683 16.7717 81.6974 18.667C79.455 20.8275 77.6238 23.3 76.0875 25.9987C75.1564 27.6366 74.2563 29.2901 73.589 31.0606C72.9683 32.7141 72.5493 34.4144 72.4406 36.1849C72.4096 36.7309 72.301 37.2769 71.9673 37.7371C71.9518 37.7605 71.9518 37.7995 71.9363 37.8151C71.3621 38.4234 70.7802 39.0396 70.206 39.648C70.1905 39.6636 70.1517 39.6636 70.0973 39.6792C70.0275 39.4608 70.0586 39.2424 70.0663 39.024C70.1284 37.5343 70.3301 36.0602 70.6172 34.5938C71.075 32.3007 71.7966 30.1091 72.8752 28.0422C74.0623 25.7647 75.4978 23.651 77.135 21.6777C77.9342 20.7183 78.7179 19.7434 79.6024 18.862C81.6509 16.8107 83.8778 14.9778 86.3297 13.4257C88.1066 12.2948 89.9455 11.273 91.8698 10.4307C94.2209 9.39332 96.665 8.63676 99.148 7.99719C101.196 7.46682 103.268 7.06124 105.379 6.84285C106.48 6.73365 107.582 6.64786 108.684 6.66346C111.058 6.70246 113.402 7.02224 115.629 7.91919C117.266 8.58216 118.709 9.51811 119.873 10.8596C121.045 12.209 121.727 13.7767 122.061 15.5316C122.418 17.3801 122.139 19.135 121.51 20.8743C120.812 22.8086 119.71 24.4933 118.414 26.0611C116.692 28.1592 114.674 29.9297 112.502 31.5364C110.352 33.1275 108.056 34.4612 105.705 35.717C104.013 36.6139 102.228 37.2613 100.413 37.8463C98.4962 38.4702 96.603 39.1644 94.6554 39.6636C92.1647 40.3031 89.6507 40.8803 87.1211 41.3561C86.4383 41.4809 85.7478 41.5979 84.9951 41.9177L84.9718 41.9099Z" fill="black"/>
<path d="M135.19 37.768C135.206 37.885 135.221 37.924 135.206 37.9396C134.864 38.6103 134.523 39.2889 134.158 39.9519C134.112 40.0377 133.957 40.0923 133.84 40.1157C133.592 40.1547 133.336 40.1625 133.088 40.1781C131.598 40.2561 130.232 40.7318 128.967 41.4884C128.153 41.9798 127.377 42.5413 126.624 43.1185C125.693 43.8205 125.018 44.7564 124.459 45.7782C123.901 46.8077 123.443 47.8763 123.249 49.0384C123.125 49.7872 123.078 50.5437 123.194 51.3003C123.334 52.1972 123.932 52.7198 124.824 52.7276C125.468 52.7354 126.034 52.5638 126.546 52.1817C127.035 51.8151 127.47 51.4173 127.803 50.8947C128.005 50.5749 128.269 50.3019 128.502 49.9978C129.798 48.3208 130.736 46.4333 131.621 44.5146C132.04 43.5943 132.436 42.6583 132.715 41.6912C132.808 41.3636 133.01 41.1686 133.328 41.0594C134.057 40.8098 134.779 40.5524 135.508 40.3029C135.648 40.2561 135.795 40.2483 136.013 40.2171C135.974 40.4588 135.966 40.6304 135.92 40.802C135.532 42.2294 135.12 43.6411 134.764 45.0762C134.414 46.4567 134.22 47.8607 134.104 49.2802C134.026 50.1928 134.026 51.1053 134.119 52.0101C134.166 52.478 134.298 52.9226 134.546 53.3204C134.833 53.7884 135.245 54.038 135.811 54.1082C137.029 54.2641 137.914 53.6948 138.69 52.8602C139.745 51.7215 140.498 50.3955 140.971 48.9136C141.266 48.0011 141.545 47.0885 141.84 46.1838C141.871 46.0746 141.925 45.9732 141.949 45.864C142.096 45.1932 142.639 44.9904 143.198 44.811C143.446 44.733 143.57 44.8578 143.508 45.1386C143.423 45.5676 143.33 45.9966 143.182 46.4021C142.6 47.9855 141.987 49.5532 141.126 51.0117C140.009 52.907 138.503 54.4045 136.54 55.4107C136.106 55.6291 135.633 55.7851 135.167 55.9099C134.476 56.0971 133.832 55.9021 133.235 55.5511C132.35 55.0285 131.784 54.2407 131.443 53.2892C131.101 52.3298 130.961 51.3237 130.954 50.3097C130.954 49.9198 130.954 49.5376 130.954 49.1164C130.62 49.2178 130.48 49.4362 130.349 49.6702C129.65 50.9259 128.843 52.1037 127.928 53.2112C127.307 53.9678 126.585 54.6073 125.802 55.1767C125.282 55.5511 124.7 55.8085 124.079 55.9099C123.365 56.0269 122.752 55.7383 122.24 55.2703C121.534 54.6307 121.231 53.7728 121.022 52.868C120.828 52.0491 120.975 51.2457 121.146 50.4501C121.278 49.8496 121.402 49.2412 121.526 48.6406C121.542 48.5782 121.526 48.508 121.518 48.4222C120.836 48.4846 120.238 48.7654 119.633 49.0072C119.455 49.0774 119.4 49.2178 119.408 49.405C119.431 49.8808 119.447 50.3643 119.447 50.8401C119.423 52.5872 118.966 54.2017 118.004 55.6603C116.56 57.8442 114.752 59.6693 112.572 61.1044C111.462 61.8376 110.252 62.3601 108.925 62.5395C106.815 62.8281 105.115 60.8938 105.659 58.8269C105.845 58.1171 106.202 57.501 106.628 56.9238C107.319 55.9801 108.118 55.1455 108.987 54.3655C110.725 52.7978 112.603 51.4407 114.628 50.2708C114.954 50.0836 115.28 49.8886 115.598 49.6858C115.808 49.5532 115.955 49.3972 115.854 49.093C115.738 48.7654 115.684 48.4144 115.59 48.0791C115.249 46.9169 114.908 45.7626 114.551 44.6082C114.481 44.3743 114.364 44.1481 114.256 43.8751C113.953 44.0389 113.682 44.1793 113.418 44.3275C113.232 44.4288 113.061 44.5536 112.882 44.655C112.386 44.9202 111.866 45.0372 111.315 44.811C111.137 44.733 110.935 44.7174 110.756 44.6472C110.562 44.5692 110.423 44.6472 110.33 44.7954C110.221 44.9748 110.128 45.162 110.043 45.357C109.593 46.3865 109.205 47.4473 108.692 48.4456C107.676 50.4423 106.427 52.2986 104.875 53.9288C104.301 54.5293 103.664 55.0675 102.943 55.4809C102.524 55.7227 102.051 55.9021 101.585 56.0191C100.871 56.1984 100.188 55.9723 99.5831 55.6057C98.458 54.9193 97.8062 53.8898 97.7131 52.5716C97.6743 52.0803 97.7829 51.5655 97.8993 51.0741C98.2407 49.5922 98.8615 48.2273 99.6296 46.9247C100.739 45.0372 101.988 43.2589 103.533 41.7068C104.402 40.8332 105.333 40.0143 106.434 39.4293C107.04 39.1095 107.684 38.9223 108.374 39.0003C108.677 39.0315 108.886 38.9145 109.065 38.7039C109.158 38.5947 109.251 38.4934 109.321 38.3686C109.468 38.1346 109.662 38.1034 109.903 38.1814C110.71 38.4232 111.276 38.9301 111.509 39.7569C111.571 39.9753 111.548 40.2327 111.509 40.4589C111.416 41.0126 111.284 41.5586 111.191 42.1124C111.16 42.3152 111.191 42.5335 111.222 42.7363C111.268 43.0015 111.408 43.1185 111.68 43.1419C112.052 43.1731 112.401 43.0951 112.719 42.8845C113.348 42.4711 113.86 41.933 114.295 41.3246C114.411 41.1608 114.481 40.9424 114.496 40.7396C114.566 40.0221 114.698 39.3201 114.931 38.6415C115.668 36.4655 116.747 34.4766 118.221 32.706C118.981 31.8013 119.943 31.2475 121.053 30.9121C121.324 30.8341 121.619 30.7561 121.837 31.0135C122.031 31.2553 121.937 31.5439 121.813 31.7701C121.565 32.2069 121.293 32.6359 120.991 33.0414C119.648 34.8119 118.508 36.715 117.375 38.6259C117.266 38.8053 117.181 39.0003 117.088 39.1875C116.359 40.6304 116.335 42.1046 116.972 43.5865C117.313 44.3743 117.709 45.1308 118.081 45.903C118.337 46.4177 118.593 46.9325 118.849 47.4551C119.051 47.8685 119.129 47.9153 119.571 47.8295C119.827 47.7749 120.091 47.6969 120.331 47.6033C120.843 47.4083 121.34 47.1821 121.844 46.9793C122.248 46.8155 122.558 46.5503 122.775 46.1682C123.388 45.0684 124.157 44.0857 124.956 43.1263C125.258 42.7597 125.592 42.4088 125.949 42.0968C127.09 41.114 128.246 40.1625 129.511 39.3435C131.055 38.3452 132.746 37.8148 134.57 37.729C134.787 37.7212 135.004 37.7602 135.229 37.7836L135.19 37.768ZM108.056 40.7864C107.769 41.0048 107.513 41.1686 107.296 41.3792C106.978 41.6912 106.683 42.0344 106.396 42.3776C104.821 44.2495 103.416 46.2462 102.151 48.3442C101.577 49.2958 101.057 50.2708 100.646 51.3081C100.39 51.9555 100.219 52.6106 100.25 53.3204C100.281 53.9912 100.607 54.3421 101.267 54.3265C101.554 54.3265 101.857 54.2641 102.12 54.1472C102.462 53.9912 102.803 53.804 103.082 53.5544C103.719 52.985 104.363 52.4078 104.921 51.7683C106.691 49.7404 107.816 47.3381 108.739 44.8344C108.855 44.5224 108.863 44.1715 108.925 43.8439C108.98 43.5553 108.886 43.3291 108.677 43.1263C108.367 42.8221 108.173 42.4477 108.126 42.0188C108.087 41.6444 108.079 41.2622 108.056 40.7942V40.7864ZM116.157 50.6295C116.103 50.6295 116.033 50.6295 115.971 50.6451C115.373 50.7855 114.869 51.1287 114.372 51.4641C112.758 52.5482 111.292 53.804 109.957 55.2079C109.065 56.1516 108.382 57.2202 108.266 58.5617C108.18 59.5757 108.576 60.2074 109.624 60.2776C110.516 60.3322 111.346 60.1294 112.114 59.6849C114.108 58.5149 115.381 56.7756 115.971 54.5449C116.304 53.2814 116.234 51.9867 116.188 50.6919C116.188 50.6841 116.172 50.6685 116.157 50.6373V50.6295Z" fill="black"/>
<path d="M67.8856 51.9479C67.9865 52.2443 67.8856 52.4705 67.7925 52.6811C67.4899 53.344 67.0632 53.9134 66.5588 54.4282C65.4415 55.5747 64.169 56.4405 62.6249 56.9084C60.7859 57.4622 59.203 56.4561 58.559 54.8493C58.2176 54.007 58.0702 53.1256 58.2176 52.2053C58.2952 51.7295 58.3107 51.2381 58.365 50.6454C58.0469 50.8871 57.7831 51.0509 57.5736 51.2537C56.1692 52.6031 54.7803 53.9758 53.3758 55.3251C52.8016 55.8789 52.1188 56.2533 51.3274 56.4171C50.1713 56.6511 48.922 55.9179 48.503 54.8103C48.1539 53.9056 48.309 53.0476 48.6039 52.1819C49.0306 50.9339 49.7057 49.8186 50.4584 48.7423C52.3051 46.1216 54.5708 43.9221 57.2011 42.097C58.8927 40.9193 60.7238 40.0223 62.6559 39.3359C63.168 39.1566 63.6956 39.0084 64.2155 38.8446C64.3319 38.8056 64.4638 38.79 64.5879 38.7666C64.7509 38.7432 64.9371 38.6652 65.0457 38.8524C65.1466 39.0318 64.9992 39.1721 64.8983 39.3047C64.8052 39.4295 64.6966 39.5387 64.6035 39.6635C64.3397 40.0067 64.0603 40.3421 63.8275 40.7087C63.6413 41.0129 63.5172 41.356 63.3232 41.7538C63.7965 41.7694 64.1767 41.6914 64.5569 41.6368C64.7819 41.6056 64.9992 41.5432 65.2165 41.5198C65.3794 41.4964 65.5423 41.5198 65.7053 41.5198C65.8062 41.7148 65.682 41.8396 65.6122 41.9644C65.1311 42.8068 64.6345 43.6413 64.1612 44.4837C63.2146 46.1762 62.3766 47.9233 61.6627 49.7328C61.1584 51.0041 60.8092 52.3223 60.8635 53.7106C60.8713 53.9446 60.9023 54.1864 60.9411 54.4204C61.0497 54.9975 61.461 55.3563 62.0429 55.4109C62.6714 55.4655 63.2844 55.3641 63.8353 55.0599C64.3629 54.7713 64.8906 54.4672 65.3561 54.0928C66.0234 53.5624 66.6442 52.9618 67.2804 52.3925C67.4666 52.2287 67.6063 52.0103 67.9167 51.9479H67.8856ZM62.2524 41.9956C62.1826 41.9956 62.1283 41.9878 62.074 41.9878C60.7394 42.0424 59.4824 42.4168 58.2874 42.9862C56.3088 43.9299 54.6251 45.2714 53.2905 47.0107C52.3749 48.2041 51.6222 49.5144 51.2265 50.9885C51.1101 51.4253 51.0791 51.9011 51.0868 52.3613C51.1024 52.9072 51.4671 53.2114 52.0102 53.149C52.3671 53.11 52.7318 53.0164 53.0577 52.8682C53.9578 52.4627 54.7337 51.8543 55.4708 51.1991C56.8753 49.9434 58.1711 48.5863 59.2806 47.0575C60.1885 45.8096 61.073 44.5461 61.8334 43.1889C62.0429 42.8224 62.1826 42.4246 62.2602 41.9878L62.2524 41.9956Z" fill="black"/>
<path d="M9.49694 27.9715C10.9635 27.6517 12.4378 27.6361 13.9975 27.9013C13.6095 28.7827 13.2526 29.5939 12.8491 30.5065C12.7327 30.2569 12.6551 30.0931 12.5853 29.9293C12.5232 29.7733 12.4766 29.6095 12.4068 29.4535C12.3059 29.2351 12.0887 29.1415 11.8947 29.2039C11.7084 29.2663 11.6153 29.4379 11.7007 29.6953C11.8559 30.1399 12.0188 30.6001 12.2438 31.0135C12.5775 31.6297 12.9422 32.2303 13.3302 32.8075C13.6639 33.3067 14.1372 33.6889 14.6028 34.0633C15.2003 34.5469 15.7745 35.0617 16.2245 35.7013C16.7444 36.4345 17.2643 37.1677 17.7687 37.9009C18.2265 38.5639 18.7076 39.1957 19.4215 39.6013C19.4913 39.6403 19.5379 39.7105 19.6155 39.7807C19.2974 40.0693 18.9482 40.0615 18.63 39.9133C18.2188 39.7183 17.8075 39.4843 17.4506 39.1957C16.791 38.6575 16.1702 38.0569 15.5262 37.5031C15.1537 37.1833 14.758 36.9025 14.2691 36.7699C14.2148 36.7543 14.145 36.7543 14.1139 36.7153C13.8734 36.3799 13.5397 36.4501 13.206 36.4813C12.8336 36.5125 12.4534 36.5281 12.0731 36.5281C11.6386 36.5281 11.2894 36.3409 11.0178 36.0055C10.6143 35.5219 10.2186 35.0305 9.8306 34.5391C9.51246 34.1413 9.33398 33.6889 9.33398 33.1819C9.33398 32.4799 9.33398 31.7779 9.3495 31.0759C9.38054 30.0697 9.43486 29.0635 9.48918 27.9715H9.49694Z" fill="#D92A64"/>
<path d="M29.4941 36.2166C29.5096 36.084 29.5096 35.9904 29.5329 35.8968C29.6725 35.3352 29.8122 34.7814 29.9441 34.2198C30.014 33.9156 30.1769 33.7206 30.4873 33.6504C30.5571 33.6348 30.6192 33.6114 30.6891 33.5802C31.3331 33.276 31.8685 33.4476 32.3031 33.9624C32.8385 34.5864 33.4127 35.187 33.6998 35.9982C33.8938 36.552 34.1809 37.0746 34.4214 37.6128C34.468 37.7142 34.499 37.8234 34.5301 37.9326C34.6077 38.151 34.5689 38.346 34.3749 38.4942C34.0179 38.7594 33.6765 39.0558 33.2963 39.2976C32.4117 39.8436 31.5504 40.413 30.8442 41.2008C30.7123 41.349 30.5882 41.4972 30.4563 41.6454C30.3011 41.8248 30.1148 41.8872 29.8898 41.8014C29.3389 41.5908 28.7879 41.3958 28.2525 41.1618C27.1739 40.6938 26.0721 40.296 24.9159 40.062C24.4115 39.9606 23.9149 40.0074 23.4183 40.1088C23.1156 40.1712 22.813 40.2102 22.5104 40.2336C22.2698 40.2492 22.2698 40.2336 22.0293 39.9996C22.2466 39.7578 22.5182 39.6408 22.8208 39.5862C23.3407 39.4926 23.8683 39.4302 24.396 39.3444C25.8393 39.126 27.2515 38.7906 28.5474 38.0808C29.1837 37.7376 29.7113 37.2618 30.1614 36.7002C30.239 36.6066 30.3088 36.4818 30.3321 36.3648C30.3554 36.2478 30.3631 36.0606 30.3011 36.0216C30.208 35.9592 30.0372 35.9592 29.9131 35.9982C29.7734 36.0372 29.657 36.1386 29.4941 36.2322V36.2166Z" fill="#D92A64"/>
<path d="M21.13 34.2253C20.9282 33.2191 20.6954 32.2987 20.2376 31.4485C20.1911 31.3627 20.16 31.2691 20.1367 31.1755C19.8031 29.9587 19.1435 28.8901 18.5693 27.7825C18.2667 27.1975 17.9951 26.5969 17.708 26.0041C17.6459 25.8793 17.6149 25.7389 17.5605 25.5673C18.0649 25.1695 18.5538 24.7561 19.0659 24.3739C19.3297 24.1789 19.4151 24.1945 19.6479 24.4285C19.9195 24.6937 20.16 24.9823 20.4239 25.2631C20.7886 25.6531 21.1455 26.0509 21.6188 26.3083C21.8051 26.4097 21.9913 26.4955 22.1775 26.5969C23.3803 27.1975 24.2726 28.1335 24.9555 29.2723C25.3823 29.9899 25.4288 30.7933 25.3512 31.6045C25.3124 31.9555 25.0874 32.2285 24.7305 32.3299C24.3114 32.4469 23.8924 32.5483 23.4734 32.6575C23.2018 32.7277 22.9302 32.7901 22.6664 32.8759C22.2241 33.0163 21.8904 33.3049 21.6111 33.6793C21.4636 33.8743 21.2929 34.0537 21.1377 34.2487L21.13 34.2253Z" fill="#D92A64"/>
<path d="M17.1712 25.5074C17.0858 25.0862 16.9927 24.665 16.9073 24.2438C16.8685 24.0488 16.8375 23.8538 16.7754 23.6666C16.7289 23.5184 16.6125 23.3546 16.4418 23.4092C16.3176 23.4482 16.1624 23.5886 16.1314 23.7056C16.0848 23.9162 16.0926 24.158 16.1314 24.3686C16.403 25.6868 16.853 26.9348 17.4893 28.1126C17.9006 28.8692 18.3274 29.6102 18.7231 30.3668C18.8938 30.6866 18.9947 31.0376 19.1266 31.3808C19.3671 32.0126 19.5999 32.6444 19.856 33.2684C20.0966 33.8456 20.2285 34.4462 20.2905 35.0624C20.2905 35.1248 20.275 35.195 20.2595 35.3354C20.081 35.2496 19.9258 35.195 19.8017 35.1014C19.4137 34.8128 19.1421 34.415 18.9171 33.986C18.5989 33.3776 18.2886 32.7614 18.0247 32.1296C17.7609 31.5056 17.3341 31.0532 16.7366 30.7412C16.2943 30.5072 15.8753 30.2186 15.4175 30.0002C15.0295 29.813 14.9209 29.5478 14.9519 29.1188C14.9985 28.3544 14.9519 27.59 14.6338 26.8802C14.3699 26.2796 14.013 25.718 13.6871 25.1486C13.3767 24.6104 13.0508 24.0878 12.6085 23.651C12.4999 23.5418 12.4378 23.4014 12.3369 23.2376C12.8568 22.7852 13.4155 22.4654 14.0518 22.286C14.6803 22.1066 15.3011 22.169 15.9219 22.2938C16.6202 22.4342 17.3108 22.6058 18.0015 22.7774C18.242 22.8398 18.4903 22.9256 18.6998 23.0426C19.2042 23.3312 19.2973 23.8772 18.8628 24.2672C18.3584 24.7274 17.7997 25.133 17.272 25.562C17.2332 25.5386 17.1867 25.523 17.1479 25.4996L17.1712 25.5074Z" fill="#D92A64"/>
<path d="M26.141 32.3476C26.1099 31.9498 26.0711 31.591 26.0634 31.2322C26.0401 30.1949 25.7607 29.2121 25.4193 28.2371C25.171 27.5195 24.9072 26.8097 24.4882 26.1701C24.333 25.9283 24.3718 25.7177 24.5425 25.5149C24.7209 25.2965 24.8917 25.0703 25.2331 25.1639C25.6909 25.2887 26.1565 25.3979 26.6221 25.4915C27.2506 25.6241 27.8791 25.5617 28.4999 25.4525C29.1129 25.3511 29.6794 25.1171 30.238 24.8675C30.432 24.7817 30.6338 24.7115 30.9054 24.6101C30.5096 24.2981 30.1372 24.5399 29.7647 24.4229C29.8501 24.0797 29.9354 23.7287 30.0363 23.3855C30.0829 23.2217 30.1992 23.1593 30.3622 23.1983C30.9209 23.3465 31.4563 23.5415 31.9296 23.8847C32.2866 24.1499 32.3331 24.5477 32.2788 24.9533C32.2633 25.0625 32.1236 25.1951 32.015 25.2341C31.5184 25.4213 31.2623 25.8425 30.983 26.2325C30.3932 27.0515 30.2846 28.0265 30.1604 28.9859C29.982 30.3664 29.8811 30.5692 28.624 31.2166C27.9412 31.5676 27.2351 31.8796 26.5367 32.1994C26.4281 32.254 26.3039 32.2852 26.141 32.3398V32.3476Z" fill="#D92A64"/>
<path d="M78.2843 75.0894C79.0137 75.8304 79.7199 76.5558 80.4415 77.2578C80.8838 77.6946 81.4115 77.9598 82.0477 77.9832C82.6297 78.0066 82.8159 77.8584 82.847 77.2812C82.8703 76.8444 82.8703 76.4076 82.8703 75.9708C82.8703 74.7307 82.8703 73.4983 82.8625 72.2581C82.8625 72.1723 82.8625 72.0865 82.8547 72.0085C82.8237 71.6965 82.7306 71.5873 82.4202 71.5405C82.265 71.5171 82.1098 71.4859 81.9469 71.4625C81.9469 71.4313 81.9391 71.3923 81.9313 71.3611C82.0012 71.3221 82.071 71.2519 82.1409 71.2441C82.3814 71.2285 82.6142 71.2441 82.8547 71.2441C83.879 71.2441 84.8955 71.2441 85.9198 71.2441C86.1526 71.2441 86.3854 71.2129 86.688 71.1895C86.6647 71.4391 86.6647 71.6809 86.6104 71.9149C86.5561 72.1333 86.6647 72.3985 86.4552 72.5779C86.2302 72.5233 86.2535 72.3517 86.2224 72.2035C86.1759 71.9851 86.044 71.8369 85.8189 71.8369C85.237 71.8291 84.655 71.8369 84.042 71.8369V74.2782C84.2127 74.2782 84.3756 74.2782 84.5308 74.2782C84.9266 74.2704 85.3145 74.2783 85.7025 74.2393C85.9431 74.2159 86.1759 74.1144 86.4552 74.0364C86.6414 74.1534 86.4552 74.3407 86.4552 74.4967C86.4552 74.6761 86.4164 74.8554 86.3931 75.0426C86.3699 75.2142 86.4552 75.417 86.2302 75.534C86.0672 75.4638 86.0905 75.3 86.0672 75.1752C86.0284 74.9724 85.912 74.8711 85.7258 74.8555C85.1749 74.8165 84.6162 74.793 84.0109 74.7618C84.0109 75.0972 84.0109 75.378 84.0109 75.651C84.0109 76.1424 84.0109 76.6338 84.0265 77.1252C84.042 77.5308 84.1506 77.6712 84.5463 77.7024C85.0197 77.7414 85.493 77.7258 85.9664 77.7024C86.2923 77.6868 86.5018 77.4996 86.5949 77.172C86.6259 77.0472 86.6958 76.9302 86.7501 76.8132C86.7889 76.8132 86.8199 76.8132 86.8587 76.8132C86.8898 76.9068 86.9441 77.0004 86.9363 77.0862C86.913 77.3514 86.882 77.6166 86.8277 77.8818C86.7656 78.2016 86.6725 78.2718 86.3388 78.2796C85.9741 78.2874 85.6094 78.2796 85.2447 78.2796C83.9877 78.2796 82.7228 78.2718 81.4658 78.264C81.2019 78.264 80.9381 78.2406 80.6665 78.2406C80.1156 78.2406 79.6578 78.0144 79.2931 77.6166C78.7189 77.0004 78.1446 76.3842 77.6015 75.7446C77.3609 75.4638 77.1126 75.3156 76.7402 75.3546C76.4763 75.378 76.2125 75.3546 75.8943 75.3546C75.8943 75.612 75.8943 75.846 75.8943 76.08C75.9099 76.5168 75.9176 76.9536 75.9487 77.3826C75.9875 77.8428 76.0573 77.8896 76.5074 77.9676C76.6548 77.991 76.8565 77.8974 76.9497 78.1626C76.6315 78.342 76.3056 78.2406 75.9797 78.2328C75.6616 78.2328 75.3357 78.2484 75.0175 78.225C74.6916 78.2016 74.3579 78.342 73.9622 78.1548C74.0786 78.0768 74.1407 77.9988 74.2105 77.9832C74.7149 77.8818 74.7614 77.8428 74.777 77.3436C74.7925 76.782 74.7925 76.2204 74.7925 75.6588C74.7925 74.5044 74.7925 73.35 74.777 72.1957C74.777 72.0865 74.777 71.9695 74.7537 71.8603C74.7149 71.6185 74.5364 71.5639 74.3347 71.5171C74.1795 71.4781 73.9544 71.5717 73.8613 71.2909C73.9622 71.2675 74.0476 71.2207 74.1329 71.2207C75.1727 71.2207 76.2047 71.1973 77.2445 71.2285C77.6558 71.2441 78.0826 71.3377 78.4628 71.4937C79.4095 71.8603 79.7819 72.8119 79.3629 73.7401C79.2388 74.0131 79.0448 74.2626 78.8508 74.5044C78.6956 74.6994 78.4938 74.8554 78.2533 75.0738L78.2843 75.0894ZM75.9564 74.7463C76.4298 74.9023 76.8721 74.8866 77.3221 74.871C77.811 74.8554 78.1369 74.5981 78.2921 74.1379C78.455 73.6387 78.4473 73.1395 78.2533 72.6559C78.1214 72.3127 77.8808 72.0631 77.5549 71.9071C77.0428 71.6653 76.5074 71.6809 75.9564 71.7901V74.754V74.7463Z" fill="black"/>
<path d="M22.2069 38.9467C22.1759 38.7049 22.1449 38.4553 22.1216 38.2057C22.0517 37.5895 21.9198 36.9889 21.5862 36.4507C21.3844 36.1309 21.3611 35.8423 21.6482 35.5459C21.819 35.3665 21.9509 35.1403 22.1061 34.9375C22.5173 34.3993 23.0527 34.1497 23.7433 34.1887C24.4417 34.2355 25.1401 34.2589 25.8384 34.2355C26.661 34.2121 27.4835 34.1263 28.306 34.0639C28.5931 34.0405 28.8802 34.0249 29.2294 34.0015C29.1673 34.3291 29.1363 34.6177 29.0665 34.8985C28.9268 35.4601 28.7638 36.0061 28.6242 36.5677C28.4922 37.0981 28.1741 37.4569 27.693 37.6909C27.0257 38.0263 26.304 38.2057 25.5824 38.3539C24.5193 38.5723 23.4407 38.7517 22.3699 38.9467C22.3311 38.9467 22.2845 38.9467 22.2147 38.9389L22.2069 38.9467Z" fill="#D92A64"/>
<path d="M30.6495 73.3189C30.1762 74.1457 29.7572 74.8711 29.3381 75.6043C28.9036 76.3609 28.4768 77.1175 28.0423 77.8741C28.0112 77.9365 27.9724 77.9989 27.9336 78.0535C27.7707 78.2953 27.6621 78.3031 27.4836 78.0691C27.3827 77.9365 27.2896 77.7961 27.2042 77.6479C26.4593 76.3921 25.7222 75.1285 24.985 73.8727C24.9151 73.7557 24.8376 73.6465 24.7134 73.4437C24.6513 73.9351 24.597 74.3329 24.5582 74.7307C24.4651 75.5809 24.372 76.4311 24.2789 77.2891C24.2711 77.3749 24.2633 77.4607 24.2633 77.5387C24.2633 77.8507 24.3099 77.8897 24.6048 77.9677C24.7444 78.0067 24.9539 77.9209 25.0238 78.1861C24.9462 78.2173 24.8686 78.2641 24.7988 78.2641C24.0849 78.2641 23.371 78.2641 22.6649 78.2407C22.6261 78.2407 22.5795 78.1783 22.4941 78.1003C22.6105 78.0535 22.6881 77.9989 22.7735 77.9911C23.2235 77.9287 23.2856 77.8819 23.371 77.4295C23.4641 76.9147 23.5262 76.3999 23.6038 75.8851C23.8055 74.4265 24.015 72.9601 24.2168 71.5015C24.2245 71.4313 24.2401 71.3611 24.2633 71.2987C24.3487 71.0881 24.4884 71.0569 24.6358 71.2363C24.7134 71.3299 24.7755 71.4469 24.8375 71.5561C25.8153 73.1941 26.8007 74.8321 27.7785 76.4779C27.825 76.5481 27.8716 76.6183 27.9492 76.7431C28.0423 76.5871 28.1276 76.4701 28.1975 76.3453C29.1131 74.7307 30.0287 73.1239 30.9521 71.5093C31.0453 71.3533 31.0918 71.0803 31.3401 71.1427C31.5574 71.1973 31.4953 71.4469 31.5186 71.6185C31.7747 73.3969 32.023 75.1753 32.2713 76.9537C32.2946 77.0941 32.3101 77.2345 32.3489 77.3671C32.4342 77.6791 32.6049 77.8975 32.9541 77.9131C33.1248 77.9209 33.2878 77.9521 33.4507 77.9833C33.5206 77.9989 33.5904 78.0457 33.7223 78.1159C33.5827 78.1861 33.4973 78.2641 33.4197 78.2563C32.6282 78.2017 31.829 78.2953 30.9832 78.1081C31.2548 77.8117 31.1772 77.4997 31.1384 77.2033C31.0065 76.0489 30.8668 74.8867 30.7194 73.7323C30.7038 73.6231 30.6728 73.5139 30.634 73.3111L30.6495 73.3189Z" fill="black"/>
<path d="M14.2455 29.4145C14.2378 29.5939 14.2222 29.7733 14.2145 29.9527C14.2145 30.1399 14.2843 30.2491 14.4628 30.3427C15.1922 30.7327 15.8983 31.1539 16.6277 31.5517C16.9071 31.6999 17.07 31.9261 17.2019 32.1991C17.5356 32.8777 17.8693 33.5641 18.234 34.2271C18.4435 34.6015 18.7073 34.9525 18.9789 35.2957C19.2505 35.6389 19.5997 35.9119 20.0187 36.0601C20.7403 36.3253 21.1516 36.8557 21.299 37.6045C21.4387 38.3143 21.4232 39.0163 21.2137 39.7105C20.9498 39.7729 20.7714 39.6481 20.6007 39.5311C19.8402 39.0241 19.1186 38.4937 18.6064 37.6981C18.0245 36.8089 17.3494 35.9743 16.7441 35.1007C16.2941 34.4533 15.6966 33.9775 15.0913 33.5017C14.5016 33.0415 13.9817 32.5189 13.5937 31.8715C13.4152 31.5751 13.3532 31.2943 13.5083 30.9589C13.7489 30.4441 13.9506 29.9059 14.1679 29.3833C14.2067 29.3989 14.2378 29.4067 14.2765 29.4223L14.2455 29.4145Z" fill="#D92A64"/>
<path d="M4.68679 78.2249C4.7411 77.9441 4.8963 78.0065 5.01269 77.9831C5.35411 77.9207 5.41619 77.8817 5.47051 77.5385C5.52483 77.2031 5.55586 76.8677 5.55586 76.5323C5.56362 74.7851 5.55586 73.0457 5.55586 71.2985C5.55586 71.2673 5.55586 71.2439 5.55586 71.2127C5.53259 70.5263 5.51707 70.3391 4.73334 70.3001C4.64799 70.3001 4.57039 70.2377 4.43848 70.1831C4.54711 70.1051 4.59367 70.0427 4.65575 70.0349C4.74886 70.0115 4.84974 70.0193 4.95061 70.0193C5.83521 70.0193 6.71205 70.0193 7.59665 70.0193C8.10103 70.0193 8.59764 70.0895 9.07098 70.3079C10.0565 70.7681 10.3668 71.7743 9.76935 72.6947C9.5676 73.0067 9.28825 73.2797 9.03218 73.5839C9.20289 73.6697 9.38913 73.7321 9.55208 73.8413C9.84694 74.0285 10.1496 74.2157 10.3979 74.4497C11.3911 75.3779 11.1816 76.7429 10.2582 77.5229C9.66847 78.0221 8.96234 78.2405 8.20966 78.2873C7.80616 78.3107 7.3949 78.2873 6.9914 78.2873C6.40166 78.2873 5.81969 78.2873 5.22996 78.2717C5.05925 78.2717 4.88854 78.2483 4.68679 78.2327V78.2249ZM6.73533 73.9817C6.72757 74.1221 6.71205 74.2469 6.71205 74.3717C6.71205 75.0893 6.71205 75.8069 6.71205 76.5245C6.71205 76.7507 6.71981 76.9769 6.74309 77.1953C6.76637 77.4059 6.85948 77.5697 7.06899 77.6399C7.76736 77.8739 8.46573 77.9129 9.14858 77.5697C9.55208 77.3669 9.77711 77.0159 9.8159 76.5635C9.87798 75.8381 9.66071 75.2063 9.15634 74.6759C8.48901 73.9739 7.63545 73.9349 6.72757 73.9817H6.73533ZM6.73533 73.4591C7.22419 73.5449 7.68976 73.5449 8.1631 73.4747C8.41141 73.4357 8.58212 73.2641 8.7218 73.0613C9.06322 72.5465 9.03994 72.0005 8.83819 71.4545C8.53557 70.6121 7.57337 70.2221 6.73533 70.5965V73.4669V73.4591Z" fill="black"/>
<path d="M24.4423 21.6468C23.8371 21.8262 23.2939 21.99 22.7119 22.1616C22.6809 21.9042 22.6576 21.6156 22.6111 21.3348C22.5878 21.1866 22.5645 21.0228 22.5024 20.8902C22.4248 20.7264 22.2696 20.6406 22.0834 20.6718C21.9205 20.703 21.8661 20.859 21.8739 20.9994C21.8894 21.405 21.9127 21.8106 21.9515 22.2162C22.0524 23.2146 22.4481 24.1116 22.9292 24.9696C23.3638 25.734 23.8061 26.4984 24.2328 27.2784C24.388 27.567 24.5044 27.879 24.6441 28.1832C24.6208 28.1988 24.5975 28.2144 24.5743 28.2222C24.3182 27.9882 24.0544 27.762 23.8138 27.5124C23.5189 27.2004 23.162 26.982 22.7818 26.8026C21.936 26.4204 21.2221 25.8822 20.6634 25.1334C20.516 24.9306 20.3065 24.7824 20.1125 24.6186C19.9262 24.4626 19.8409 24.2676 19.8409 24.0336C19.8409 23.8542 19.8409 23.667 19.8254 23.4876C19.7943 23.1756 19.709 22.9026 19.4529 22.6764C19.3132 22.5516 19.2279 22.3254 19.1891 22.1226C19.127 21.7326 19.1192 21.3426 19.0727 20.9526C19.0572 20.8044 19.1192 20.7108 19.2279 20.6328C19.3753 20.5314 19.5227 20.4222 19.6779 20.3208C20.0659 20.0634 20.4694 19.8372 20.8264 19.5564C21.2066 19.26 21.579 19.2288 21.9903 19.4472C22.9835 19.9776 23.7517 20.7654 24.4346 21.6624L24.4423 21.6468Z" fill="#D92A64"/>
<path d="M92.8398 78.0922C92.9562 78.0532 93.0493 78.0142 93.1424 77.9908C93.4916 77.9128 93.5692 77.8504 93.6002 77.4916C93.639 77.086 93.6545 76.6804 93.6545 76.267C93.6545 74.8864 93.6468 73.5136 93.6312 72.133C93.6312 71.6572 93.5459 71.5792 93.0726 71.5246C92.9484 71.509 92.8165 71.4779 92.6923 71.4545C92.6923 71.4233 92.6923 71.3921 92.6846 71.3687C92.7389 71.3219 92.7932 71.2594 92.863 71.2438C92.9562 71.2204 93.057 71.2361 93.1579 71.2361C94.3607 71.2361 95.5634 71.2361 96.7661 71.2361C97.4257 71.2361 98.0775 71.3297 98.7138 71.5169C99.6139 71.7899 100.367 72.2734 100.848 73.108C101.608 74.4262 101.282 76.1734 100.08 77.242C99.2647 77.9674 98.287 78.2872 97.2317 78.3184C96.3394 78.3496 95.447 78.2716 94.5469 78.256C94.1434 78.2482 93.7321 78.256 93.3286 78.2638C93.1657 78.2638 92.995 78.3184 92.832 78.0922H92.8398ZM95.8738 71.743C95.6332 71.743 95.4004 71.7274 95.1599 71.743C94.8961 71.7586 94.8495 71.8054 94.8495 72.0862C94.8495 73.7554 94.8495 75.4324 94.8728 77.1016C94.8728 77.4838 94.9659 77.6086 95.3306 77.7022C95.6565 77.788 95.9902 77.827 96.3238 77.8504C97.2162 77.905 98.0775 77.788 98.869 77.32C99.4044 77.0002 99.7536 76.54 99.901 75.9472C100.297 74.3482 99.7691 73.03 98.2715 72.2345C97.5266 71.8367 96.7118 71.7274 95.8738 71.743Z" fill="black"/>
<path d="M53.4691 72.9443C53.4691 73.6463 53.4613 74.2781 53.4691 74.9099C53.4769 75.4403 53.5157 75.9785 53.5389 76.5089C53.5545 76.8287 53.57 77.1563 53.6088 77.4761C53.6476 77.8427 53.7329 77.9051 54.1131 77.9831C54.2761 78.0143 54.4856 77.9129 54.6175 78.1469C54.5632 78.1859 54.5089 78.2561 54.4623 78.2561C53.6243 78.2561 52.7863 78.2561 51.9482 78.2405C51.9172 78.2405 51.8784 78.1703 51.8008 78.0767C51.956 78.0377 52.0491 78.0143 52.1422 77.9987C52.5845 77.9363 52.6621 77.8583 52.6931 77.4137C52.7087 77.2577 52.7009 77.1017 52.7009 76.9535C52.7009 75.2063 52.7009 73.4669 52.7009 71.7197C52.7009 71.5169 52.6388 71.2517 52.8716 71.1659C53.0889 71.0801 53.213 71.3141 53.3527 71.4389C55.2771 73.1159 57.1937 74.8007 59.1181 76.4777C59.1569 76.5167 59.2035 76.5479 59.2811 76.6103C59.3043 76.5323 59.3354 76.4777 59.3354 76.4153C59.2966 75.0659 59.2578 73.7165 59.219 72.3671C59.219 72.3125 59.2035 72.2579 59.2035 72.2033C59.1336 71.6183 59.1181 71.6105 58.5439 71.5481C58.4197 71.5325 58.2956 71.4857 58.1792 71.4545C58.1637 71.4077 58.1404 71.3687 58.1249 71.3219C58.1792 71.3063 58.2335 71.2829 58.2878 71.2673C58.5827 71.2127 60.6312 71.2673 60.8252 71.3375C60.8408 71.5247 60.6933 71.5169 60.5769 71.5403C60.1036 71.6417 60.0803 71.6651 60.0803 72.1409C60.0648 73.9973 60.0493 75.8537 60.026 77.7101C60.026 77.9129 60.1269 78.1859 59.9096 78.2951C59.6768 78.4121 59.5061 78.1625 59.3431 78.0221C58.055 76.9379 56.7747 75.8537 55.4944 74.7539C54.827 74.1767 54.183 73.5839 53.4769 72.9521L53.4691 72.9443Z" fill="black"/>
<path d="M46.1672 71.1115C47.1139 71.0959 48.0217 71.2753 48.8598 71.7511C49.9772 72.3907 50.5669 73.3657 50.5514 74.6527C50.5359 75.7993 50.0237 76.7353 49.1159 77.4295C48.0295 78.2563 46.788 78.4669 45.4611 78.3577C44.6075 78.2875 43.8083 78.0379 43.1254 77.5075C41.3795 76.1581 41.1234 73.6231 43.1642 72.0163C44.0411 71.3299 45.0576 71.0881 46.1672 71.1037V71.1115ZM43.0013 74.4499C43.0013 74.4499 43.0245 74.4499 43.0323 74.4499C43.0323 74.5747 43.0245 74.7073 43.0323 74.8321C43.0478 74.9725 43.0711 75.1129 43.0944 75.2455C43.3349 76.5013 44.0488 77.3437 45.2748 77.7181C45.8568 77.8975 46.4621 77.9287 47.0595 77.7961C48.1381 77.5621 48.8675 76.9225 49.1159 75.8227C49.2012 75.4327 49.2322 75.0115 49.2167 74.6137C49.1547 73.4905 48.7046 72.5701 47.7036 72.0085C46.625 71.4001 45.5076 71.4235 44.4058 71.9461C43.7307 72.2659 43.3272 72.8275 43.1409 73.5373C43.0633 73.8337 43.0478 74.1457 43.0013 74.4499Z" fill="black"/>
<path d="M16.9225 78.397C16.1775 78.3892 15.4016 78.2722 14.6877 77.9212C13.4772 77.3206 12.7633 76.3456 12.6314 74.9962C12.5383 74.0524 12.9107 73.2334 13.5315 72.5314C14.1678 71.8138 14.9748 71.3848 15.9137 71.2132C17.1087 71.0026 18.2804 71.0728 19.4055 71.572C21.974 72.7108 21.9352 75.6592 20.3522 77.149C19.5064 77.9446 18.327 78.3892 16.9225 78.3892V78.397ZM20.1272 75.0898C20.1427 73.99 19.8866 73.0618 19.0874 72.3676C18.0243 71.4316 16.2862 71.3224 15.0912 72.079C14.6489 72.3598 14.3152 72.7342 14.1445 73.2256C13.7565 74.3488 13.8264 75.4564 14.4627 76.4626C15.2231 77.6638 16.4026 77.9992 17.745 77.8432C18.9788 77.695 19.7625 76.9774 20.0341 75.7762C20.0884 75.5344 20.0962 75.277 20.1194 75.0976L20.1272 75.0898Z" fill="black"/>
<path d="M25.5518 33.4472C26.126 33.1976 26.6226 32.987 27.1114 32.7608C27.8564 32.4098 28.6013 32.051 29.3462 31.7C30.3084 31.2476 30.7352 30.4598 30.8516 29.438C30.9137 28.8842 31.0068 28.3226 31.1154 27.7766C31.1697 27.5036 31.2551 27.2306 31.3792 26.981C31.4724 26.786 31.6431 26.6378 31.806 26.4272C32.5199 27.0356 33.2648 27.5426 33.4976 28.463C33.5985 28.853 33.6063 29.2664 33.6683 29.672C33.7071 29.945 33.7615 30.2258 33.8313 30.491C33.9089 30.7952 33.8546 31.0058 33.5907 31.2164C32.163 32.3552 30.5645 33.0572 28.7487 33.2522C27.9883 33.3302 27.2278 33.4472 26.4674 33.5408C26.1958 33.572 25.9242 33.572 25.5673 33.455L25.5518 33.4472Z" fill="#D92A64"/>
<path d="M38.5803 74.2703C38.7432 74.3483 38.8596 74.3873 38.9683 74.4497C39.2398 74.6213 39.527 74.7773 39.7597 74.9879C40.7685 75.9161 40.3417 77.1251 39.589 77.6789C38.9993 78.1157 38.332 78.2795 37.6181 78.2951C37.2146 78.3029 36.8111 78.2561 36.3998 78.2561C35.9808 78.2561 35.5618 78.2717 35.1428 78.2717C34.972 78.2717 34.7781 78.3341 34.6151 78.1001C34.7082 78.0611 34.7858 77.9987 34.8712 77.9987C35.2126 77.9831 35.2902 77.8427 35.3523 77.5229C35.3833 77.3591 35.3833 77.1875 35.3911 77.0159C35.3911 75.4013 35.3911 73.7867 35.3911 72.1643C35.3911 71.6573 35.3212 71.5949 34.8168 71.5325C34.7005 71.5169 34.5841 71.4779 34.4521 71.4545C34.5142 71.1893 34.6927 71.2439 34.8324 71.2439C35.6549 71.2439 36.4852 71.2361 37.3077 71.2439C37.587 71.2439 37.8741 71.2673 38.138 71.3375C38.4018 71.4077 38.6734 71.5091 38.9062 71.6651C39.4338 72.0083 39.589 72.5231 39.4261 73.1315C39.2942 73.6073 38.9683 73.9271 38.5803 74.2781V74.2703ZM36.5705 74.7071C36.5705 75.5573 36.5705 76.4153 36.5705 77.2733C36.5705 77.4761 36.6869 77.6087 36.8809 77.6789C37.4396 77.8739 38.0061 77.9051 38.557 77.6555C38.9527 77.4761 39.1545 77.1641 39.17 76.7273C39.2243 75.3701 37.8974 74.3405 36.5705 74.7149V74.7071ZM36.5705 71.7665V74.1689C36.974 74.1689 37.3465 74.2001 37.719 74.1611C38.0992 74.1221 38.3087 73.8491 38.394 73.4981C38.6889 72.2969 37.781 71.4233 36.5705 71.7665Z" fill="black"/>
<path d="M148.706 8.52799C148.69 9.22999 148.574 9.90079 148.333 10.556C148.194 10.9304 147.969 11.2502 147.666 11.5076C146.898 12.1706 145.897 12.038 145.222 11.1644C144.632 10.4 144.5 9.50299 144.477 8.58259C144.461 7.88839 144.586 7.20979 144.811 6.55459C144.958 6.11779 145.199 5.74339 145.571 5.47039C146.277 4.94779 147.107 5.00239 147.751 5.59519C148.264 6.07099 148.45 6.70279 148.574 7.35799C148.644 7.74019 148.659 8.13799 148.706 8.52799ZM147.154 8.54359C147.154 7.85719 147.169 7.16299 147.154 6.47659C147.154 6.22699 147.1 5.97739 147.014 5.74339C146.89 5.39239 146.556 5.39239 146.285 5.64979C145.967 5.93839 146.006 6.31279 145.998 6.64819C145.975 7.88059 145.975 9.12079 145.998 10.361C145.998 10.6496 146.068 10.9382 146.153 11.219C146.238 11.5154 146.316 11.5466 146.611 11.5388C146.859 11.5388 146.999 11.4452 147.069 11.1956C147.123 11.0084 147.162 10.8134 147.169 10.6184C147.177 9.93199 147.169 9.23779 147.169 8.55139L147.154 8.54359Z" fill="black"/>
<path d="M134.056 78.498C134.041 78.186 134.219 78.1548 134.351 78.0924C135.166 77.6634 135.88 77.1018 136.462 76.3764C137.447 75.1518 137.89 73.779 137.579 72.2034C137.494 71.7588 137.316 71.3454 137.005 71.0022C136.477 70.4094 135.663 70.23 134.933 70.5498C134.359 70.8072 134.08 71.2908 134.056 71.8836C133.987 73.7244 135.515 74.325 136.702 73.896C136.834 73.8492 136.966 73.7088 137.137 73.8648C137.122 74.0364 136.99 74.1144 136.865 74.2002C135.872 74.871 134.173 74.6136 133.412 73.6776C132.745 72.8508 132.799 71.673 133.552 70.8228C134.553 69.6918 136.78 69.4812 137.944 70.5732C138.565 71.1504 138.86 71.8758 138.891 72.7104C138.945 74.3562 138.254 75.6744 137.075 76.7664C136.315 77.4684 135.438 77.991 134.491 78.3966C134.359 78.4512 134.212 78.459 134.049 78.4902L134.056 78.498Z" fill="black"/>
<path d="M129.704 73.8959C129.603 74.0051 129.533 74.1065 129.44 74.1767C128.47 74.8631 126.445 74.7306 125.715 73.3578C125.296 72.57 125.428 71.5794 126.064 70.8462C127.096 69.6606 129.533 69.411 130.72 70.8306C131.349 71.5794 131.504 72.453 131.395 73.3967C131.225 74.9645 130.394 76.1423 129.207 77.1017C128.548 77.6321 127.818 78.0455 127.05 78.3887C126.903 78.4511 126.755 78.5681 126.577 78.4277C126.515 78.2327 126.67 78.1859 126.786 78.1235C127.353 77.8427 127.872 77.4839 128.33 77.0471C129.595 75.8537 130.325 74.4263 130.154 72.6246C130.107 72.1566 129.991 71.712 129.743 71.3064C129.3 70.5732 128.532 70.2456 127.733 70.4484C127.027 70.6278 126.584 71.166 126.569 71.907C126.522 73.7712 128.105 74.3172 129.238 73.8804C129.362 73.8336 129.479 73.7166 129.696 73.8804L129.704 73.8959Z" fill="black"/>
<path d="M140.412 76.2362C140.443 76.3454 140.489 76.4624 140.505 76.5794C140.582 77.2112 140.931 77.6012 141.552 77.7416C142.181 77.8898 142.809 77.8664 143.407 77.6246C144.61 77.1488 144.858 75.503 143.857 74.6762C143.422 74.3174 142.918 74.1302 142.375 74.0132C142.196 73.9742 141.979 73.9976 141.832 73.7324C141.963 73.6778 142.08 73.6154 142.196 73.5842C142.639 73.4828 143.058 73.3268 143.422 73.0538C143.981 72.6326 144.222 72.0164 144.051 71.4392C143.927 71.018 143.663 70.7294 143.267 70.5656C142.755 70.355 142.227 70.3316 141.707 70.511C141.265 70.6592 140.955 70.94 140.916 71.4392C140.916 71.4704 140.916 71.5016 140.9 71.525C140.846 71.6108 140.784 71.6888 140.722 71.7746C140.675 71.6966 140.598 71.6264 140.582 71.5484C140.543 71.2598 140.528 70.9634 140.497 70.667C140.474 70.4096 140.598 70.2614 140.823 70.2068C141.226 70.1054 141.63 69.9728 142.049 69.926C142.693 69.848 143.337 69.8402 143.958 70.0664C144.214 70.16 144.478 70.2926 144.695 70.4642C145.323 70.9634 145.448 71.7746 144.982 72.422C144.757 72.734 144.439 72.9758 144.144 73.241C144.035 73.3424 143.896 73.4048 143.74 73.5062C143.865 73.5608 143.95 73.592 144.035 73.6388C144.26 73.7558 144.493 73.8494 144.703 73.9898C145.75 74.7074 145.96 75.8852 145.238 76.9382C144.866 77.4764 144.361 77.843 143.764 78.0848C142.77 78.4904 141.746 78.5294 140.714 78.3032C140.148 78.1784 140.07 78.0692 140.093 77.4998C140.109 77.1644 140.14 76.829 140.179 76.4936C140.187 76.4078 140.249 76.3298 140.287 76.244C140.326 76.244 140.373 76.244 140.412 76.244V76.2362Z" fill="black"/>
<path d="M104.137 78.186C104.044 78.2172 103.974 78.264 103.896 78.264C103.128 78.264 102.36 78.2562 101.592 78.2406C101.553 78.2406 101.514 78.1782 101.444 78.1158C101.537 78.0612 101.607 77.9988 101.669 77.9988C102.306 78.0222 102.624 77.64 102.849 77.1096C103.648 75.2688 104.463 73.428 105.27 71.595C105.324 71.478 105.371 71.361 105.441 71.2596C105.557 71.0958 105.697 71.088 105.805 71.2596C105.906 71.4156 105.976 71.5794 106.054 71.7432C106.822 73.3968 107.582 75.0582 108.358 76.7118C108.475 76.9692 108.622 77.211 108.769 77.445C108.971 77.7804 109.282 77.952 109.67 77.991C109.77 77.9988 109.864 78.03 109.964 78.0534C109.964 78.0846 109.964 78.1158 109.972 78.147C109.902 78.186 109.825 78.264 109.755 78.264C109.041 78.264 108.327 78.2484 107.613 78.2328C107.582 78.2328 107.543 78.186 107.481 78.147C107.668 77.913 107.551 77.6946 107.443 77.4684C107.202 76.9614 106.961 76.4544 106.744 75.9318C106.659 75.7368 106.55 75.651 106.333 75.6588C105.728 75.6666 105.13 75.6588 104.525 75.6588C104.346 75.6588 104.238 75.7056 104.176 75.885C103.989 76.3686 103.796 76.8522 103.602 77.3358C103.563 77.4294 103.539 77.523 103.524 77.6166C103.485 77.874 103.539 77.9364 103.796 77.9832C103.904 78.0066 104.059 77.9364 104.129 78.1782L104.137 78.186ZM106.379 75.1128C106.061 74.3406 105.759 73.623 105.425 72.8118C105.107 73.623 104.82 74.3484 104.525 75.1128H106.379Z" fill="black"/>
<path d="M67.3584 71.4547C67.4981 71.1817 67.6688 71.2441 67.8162 71.2441C68.7862 71.2441 69.7484 71.2441 70.7183 71.2441C71.1761 71.2441 71.634 71.2207 72.0995 71.2129C72.1849 71.4781 72.0607 72.3517 71.8512 72.6247C71.7892 72.4921 71.7348 72.3907 71.7038 72.2815C71.5952 71.9071 71.5486 71.8447 71.1606 71.8291C70.633 71.8057 70.0976 71.8291 69.5621 71.8291C69.4768 72.1021 69.4535 73.7167 69.5389 74.2861C70.3226 74.2159 71.1373 74.4187 71.9521 73.9975C72.0142 74.4655 71.8667 74.8867 71.8512 75.3235C71.8512 75.4015 71.7659 75.4717 71.6805 75.6277C71.6184 75.4405 71.5796 75.3391 71.5641 75.2377C71.5253 74.9959 71.3857 74.8633 71.1451 74.8477C70.6174 74.8243 70.0898 74.8009 69.5389 74.7775C69.5233 74.8945 69.5001 74.9803 69.5001 75.0583C69.5001 75.7213 69.4845 76.3843 69.5001 77.0395C69.5156 77.5699 69.663 77.7103 70.1829 77.7415C70.5476 77.7649 70.9123 77.7571 71.277 77.7415C71.6883 77.7259 72.0064 77.5777 72.0995 77.1175C72.1228 77.0083 72.2082 76.9147 72.278 76.7743C72.3556 76.8835 72.4099 76.9303 72.4099 76.9693C72.3711 77.3281 72.3401 77.6947 72.2702 78.0535C72.2315 78.2719 72.0297 78.3031 71.8357 78.3031C71.1917 78.3031 70.5476 78.2875 69.9036 78.2797C69.275 78.2797 68.6465 78.2797 68.018 78.2797C67.8705 78.2797 67.7309 78.2563 67.5834 78.2407L67.5602 78.1393C67.63 78.0925 67.6921 78.0301 67.7619 78.0145C68.2042 77.8897 68.2818 77.8195 68.3051 77.3515C68.3284 76.9147 68.3361 76.4779 68.3361 76.0411C68.3361 74.8009 68.3361 73.5607 68.3284 72.3283C68.3284 72.2269 68.3284 72.1333 68.3128 72.0319C68.2818 71.7121 68.1887 71.6107 67.8783 71.5639C67.7231 71.5405 67.5679 71.5093 67.3584 71.4703V71.4547Z" fill="black"/>
<path d="M29.4156 22.5436C29.3768 22.7854 29.3535 23.0038 29.2992 23.2144C29.2061 23.5654 29.0897 23.9086 28.9811 24.2596C28.9112 24.4936 28.7483 24.634 28.5077 24.6886C28.0033 24.8056 27.5222 24.8758 26.9868 24.7822C26.3971 24.6808 25.8151 24.5482 25.2331 24.4078C24.8296 24.3142 24.5193 24.4234 24.2554 24.7276C24.1546 24.8446 24.0459 24.9382 23.914 25.0708C23.4096 24.5092 23.138 23.8774 22.9441 23.1988C22.9053 23.0506 22.9906 22.9648 23.107 22.8946C23.6036 22.5826 24.1313 22.3798 24.7288 22.4656C25.7686 22.6138 26.8161 22.6606 27.8637 22.6138C28.2982 22.5982 28.725 22.5592 29.1595 22.5358C29.2294 22.5358 29.2914 22.5436 29.4078 22.5514L29.4156 22.5436Z" fill="#D92A64"/>
<path d="M115.699 76.8052C115.699 76.8052 115.761 76.8286 115.768 76.8442C115.861 77.3044 115.768 77.7412 115.567 78.139C115.52 78.2326 115.295 78.2716 115.155 78.2794C114.721 78.295 114.286 78.2794 113.852 78.2794C112.913 78.2794 111.974 78.2794 111.043 78.2638C110.888 78.2638 110.701 78.3106 110.569 78.061C110.686 78.0298 110.779 77.9908 110.88 77.983C111.151 77.9674 111.291 77.827 111.314 77.5618C111.338 77.3512 111.369 77.1406 111.369 76.93C111.369 75.4246 111.369 73.9192 111.369 72.4138C111.369 72.3436 111.369 72.2734 111.369 72.2032C111.338 71.6104 111.314 71.5792 110.725 71.509C110.6 71.4934 110.469 71.5012 110.438 71.3296C110.67 71.2048 111.974 71.1502 113.169 71.2204C113.262 71.2204 113.363 71.2672 113.487 71.3062C113.347 71.5402 113.169 71.5012 113.014 71.5168C112.665 71.5636 112.579 71.6338 112.556 71.9926C112.54 72.2188 112.533 72.445 112.533 72.6712C112.533 73.9114 112.54 75.1516 112.556 76.384C112.556 76.6492 112.595 76.9144 112.626 77.1796C112.657 77.4526 112.804 77.6398 113.076 77.6476C113.658 77.671 114.247 77.6866 114.829 77.671C115.171 77.6554 115.38 77.4292 115.481 77.1016C115.536 76.9144 115.543 76.9144 115.706 76.7974L115.699 76.8052Z" fill="black"/>
<path d="M140.558 8.42655C140.791 8.32515 140.939 8.26275 141.094 8.20815C141.466 8.08335 141.707 7.82595 141.846 7.46715C141.994 7.08495 141.963 6.71835 141.684 6.40635C141.381 6.07875 141.001 5.94615 140.582 6.10215C140.357 6.18795 140.155 6.35175 139.953 6.49995C139.86 6.57015 139.782 6.66375 139.666 6.78075C139.751 6.19575 140.271 5.55616 140.845 5.29876C141.358 5.07256 141.87 5.02576 142.39 5.26756C143.321 5.69656 143.507 6.78075 142.762 7.49055C142.661 7.58415 142.553 7.66995 142.413 7.78695C142.545 7.88055 142.653 7.95075 142.762 8.02875C143.592 8.62935 143.755 9.77595 143.212 10.6573C142.459 11.8741 141.187 12.1003 140.031 11.8585C139.899 11.8273 139.767 11.7649 139.65 11.6869C139.348 11.4919 139.262 11.1877 139.418 10.9303C139.581 10.6573 139.922 10.5949 140.225 10.7977C140.388 10.9069 140.527 11.0473 140.69 11.1565C140.853 11.2657 141.016 11.3827 141.195 11.4529C141.839 11.7181 142.459 11.2891 142.467 10.5871C142.467 9.69015 141.978 8.99595 141.078 8.62935C140.939 8.57475 140.807 8.52015 140.566 8.42655H140.558Z" fill="black"/>
<path d="M124.349 78.1393C124.295 78.1783 124.241 78.2485 124.187 78.2485C123.154 78.2563 122.122 78.2641 121.083 78.2641C121.013 78.2641 120.943 78.2017 120.803 78.1315C120.935 78.0613 121.005 77.9989 121.083 77.9833C121.277 77.9521 121.471 77.9365 121.665 77.9209C121.921 77.8975 122.037 77.7415 122.068 77.5153C122.091 77.3515 122.107 77.1799 122.107 77.0083C122.107 75.1519 122.107 73.2955 122.107 71.4469C122.107 71.3611 122.099 71.2831 122.091 71.1661C121.579 71.0725 121.152 71.4937 120.602 71.4235C120.796 71.0257 121.153 70.9711 121.424 70.7917C121.719 70.5967 122.022 70.4329 122.34 70.2769C122.627 70.1365 122.875 69.8713 123.279 69.8791C123.286 70.0585 123.302 70.2145 123.302 70.3627C123.294 72.4297 123.286 74.4967 123.279 76.5559C123.279 76.8367 123.286 77.1175 123.31 77.3983C123.333 77.7649 123.426 77.8507 123.791 77.8975C124.039 77.9287 124.228 78.0067 124.357 78.1315L124.349 78.1393Z" fill="black"/>
<path d="M147.698 16.9666C146.984 16.171 146.262 15.3754 145.548 14.5798C145.525 14.5876 145.494 14.5954 145.471 14.6032C145.471 14.9074 145.463 15.2038 145.455 15.508C145.455 15.664 145.455 15.82 145.455 15.9682C145.44 16.2568 145.44 16.5376 145.781 16.6234C145.781 16.8028 145.696 16.8652 145.572 16.8496C145.292 16.8106 144.966 16.99 144.687 16.6702C145.137 16.5142 145.067 16.1554 145.067 15.8278C145.067 15.2896 145.067 14.7592 145.067 14.221C145.067 13.9558 144.904 13.7764 144.648 13.714C144.369 13.6516 144.221 13.753 144.214 14.0494C144.214 14.8684 144.214 15.6796 144.214 16.4986C144.214 16.6546 144.26 16.8418 144.004 16.9588C143.29 16.171 142.576 15.3676 141.816 14.5174C141.793 14.6734 141.769 14.7592 141.769 14.845C141.769 15.2662 141.769 15.6874 141.769 16.1086C141.769 16.288 141.754 16.483 142.002 16.5454C142.041 16.5532 142.087 16.6468 142.095 16.7092C142.095 16.7482 142.033 16.8262 141.994 16.8262C141.692 16.8184 141.397 16.795 141.094 16.7716C141.079 16.7716 141.071 16.7248 141.055 16.7014C141.055 16.6702 141.055 16.6312 141.071 16.6234C141.327 16.4986 141.397 16.2958 141.381 16.015C141.358 15.4534 141.366 14.8918 141.381 14.3302C141.381 14.0416 141.296 13.8466 141.032 13.7218C140.962 13.6906 140.924 13.5892 140.877 13.519C140.955 13.4722 141.032 13.3942 141.118 13.3864C141.428 13.3474 141.692 13.3864 141.925 13.6828C142.413 14.299 142.957 14.8684 143.484 15.4534C143.562 15.5392 143.655 15.625 143.818 15.781C143.818 15.391 143.818 15.1024 143.818 14.8216C143.818 14.6422 143.818 14.455 143.818 14.2756C143.826 13.9948 143.849 13.7062 143.376 13.6126C143.546 13.4956 143.624 13.4254 143.709 13.3942C143.787 13.3708 143.872 13.3864 143.958 13.3864C144.299 13.3864 144.64 13.4488 144.982 13.3864C145.23 13.3396 145.401 13.4566 145.564 13.636C146.115 14.2756 146.681 14.8996 147.24 15.5236C147.302 15.5938 147.372 15.6562 147.511 15.7966C147.511 15.469 147.511 15.235 147.511 15.001C147.511 14.7514 147.511 14.494 147.511 14.2444C147.511 13.9714 147.55 13.6984 147.178 13.6516C147.178 13.4644 147.255 13.402 147.403 13.3786C147.806 13.324 148.07 13.3786 148.249 13.597C147.837 13.7296 147.892 14.065 147.899 14.3848C147.899 15.0868 147.899 15.7888 147.899 16.4908C147.899 16.6312 147.861 16.7716 147.837 16.912C147.791 16.9198 147.752 16.9354 147.705 16.9432L147.698 16.9666Z" fill="black"/>
<path d="M62.7018 71.3456C62.7406 71.3144 62.7872 71.252 62.826 71.252C63.6485 71.252 64.4788 71.252 65.3013 71.252C65.3479 71.252 65.3867 71.3066 65.4255 71.3378C65.3634 71.5562 65.1772 71.525 65.0375 71.5328C64.7969 71.5562 64.6883 71.6732 64.665 71.9072C64.6495 72.0476 64.634 72.1879 64.634 72.3283C64.634 73.7791 64.634 75.2221 64.634 76.6729C64.634 76.9537 64.665 77.2345 64.6961 77.5153C64.7271 77.8195 64.8047 77.8897 65.1151 77.9443C65.2548 77.9677 65.3944 77.9677 65.5341 77.9989C65.5962 78.0145 65.6583 78.0769 65.7979 78.1783C65.5884 78.2251 65.4798 78.2641 65.3634 78.2641C64.5021 78.3109 62.8958 78.2407 62.6553 78.1315C62.7561 78.0691 62.8182 78.0067 62.8881 77.9911C63.3614 77.8897 63.4002 77.8819 63.4235 77.3983C63.4545 76.7353 63.4623 76.0801 63.47 75.4171C63.47 74.333 63.4623 73.2487 63.4545 72.1724C63.4545 72.071 63.4545 71.9774 63.439 71.876C63.4235 71.681 63.3226 71.5718 63.1209 71.5406C62.9734 71.5172 62.8337 71.4782 62.6941 71.447C62.6941 71.408 62.6941 71.369 62.6941 71.3378L62.7018 71.3456Z" fill="black"/>
<path d="M147.309 53.3364C147.185 53.8746 143.461 61.3002 143.127 61.6122C143.15 61.4406 143.135 61.3158 143.174 61.2144C143.313 60.8478 143.453 60.4812 143.624 60.1302C143.949 59.475 144.035 58.7964 143.903 58.0866C143.841 57.7434 143.957 57.447 144.112 57.1584C144.594 56.2536 145.082 55.3488 145.556 54.4518C145.711 54.1632 145.858 53.8824 145.99 53.586C146.083 53.391 146.231 53.274 146.448 53.274C146.735 53.274 147.03 53.1882 147.302 53.3442L147.309 53.3364Z" fill="black"/>
<path d="M149.428 53.2738C149.342 53.8744 145.726 61.1362 145.237 61.7212C145.09 61.5886 145.191 61.4638 145.237 61.3468C145.4 60.9568 145.571 60.5746 145.742 60.1924C146.052 59.506 146.176 58.804 146.029 58.063C145.974 57.7978 146.068 57.5638 146.192 57.3376C146.75 56.2846 147.309 55.2238 147.868 54.1708C147.93 54.0616 148.007 53.9524 148.039 53.8354C148.178 53.3518 148.543 53.2426 148.977 53.2582C149.117 53.2582 149.249 53.2738 149.42 53.2816L149.428 53.2738Z" fill="black"/>
<path d="M54.9819 10.0327C54.9509 10.1653 54.9431 10.2589 54.8965 10.3447C53.5852 13.0591 52.2583 15.7657 50.846 18.4177C50.6287 18.3319 50.6986 18.2227 50.7451 18.1213C50.9003 17.7703 51.0633 17.4349 51.2107 17.0839C51.4047 16.6081 51.6297 16.1323 51.622 15.5941C51.622 15.3133 51.5754 15.0403 51.5832 14.7595C51.5832 14.5567 51.5987 14.3305 51.6918 14.1589C52.3436 12.8953 53.011 11.6473 53.6705 10.3915C53.7869 10.1731 53.9499 10.0405 54.1982 10.0405C54.4465 10.0405 54.6948 10.0405 54.9819 10.0405V10.0327Z" fill="black"/>
<path d="M52.9338 10.0249C51.5759 12.8641 50.1636 15.5707 48.7902 18.3475C48.5884 18.1681 48.6505 18.0355 48.7126 17.8951C48.8678 17.5441 48.9997 17.1931 49.1704 16.8577C49.4885 16.2337 49.6127 15.5863 49.4885 14.8999C49.4109 14.4865 49.5273 14.1355 49.7213 13.7767C50.3499 12.6145 50.9629 11.4445 51.5604 10.2667C51.6457 10.1029 51.7388 10.0249 51.9095 10.0249C52.2122 10.0249 52.5226 10.0249 52.9338 10.0249Z" fill="black"/>
<path d="M139.682 15.5943H138.79C138.697 15.8751 138.611 16.1481 138.526 16.4133C138.619 16.5381 138.697 16.6395 138.782 16.7487C138.363 16.9281 137.96 16.8969 137.758 16.6629C138.146 16.4835 138.216 16.1091 138.332 15.7503C138.58 14.9781 138.836 14.2059 139.085 13.4415C139.519 13.3401 139.527 13.3479 139.659 13.7145C139.938 14.5101 140.218 15.3057 140.489 16.1013C140.551 16.2885 140.613 16.4679 140.823 16.5615C140.869 16.5849 140.924 16.6707 140.908 16.7253C140.9 16.7721 140.823 16.8423 140.769 16.8501C140.412 16.8579 140.055 16.8501 139.713 16.8501C139.581 16.5615 139.822 16.5693 139.946 16.4445C139.861 16.1715 139.768 15.8829 139.674 15.5943H139.682ZM138.945 15.1419H139.504C139.411 14.8767 139.333 14.6505 139.217 14.3307C139.108 14.6505 139.038 14.8689 138.945 15.1419Z" fill="black"/>
<path d="M134.111 17.38C134.359 17.4034 134.553 17.4112 134.74 17.4424C134.903 17.4658 135.066 17.6374 135.221 17.4112C135.244 17.3722 135.415 17.4346 135.531 17.458C135.64 17.146 135.376 16.8262 135.632 16.522C135.772 16.7092 135.919 16.873 136.028 17.0602C136.074 17.1382 136.067 17.2708 136.043 17.3722C136.012 17.4892 135.919 17.5906 135.873 17.7076C135.842 17.7778 135.818 17.8948 135.849 17.9416C136.067 18.2302 136.323 18.472 136.711 18.6202C136.765 18.2536 136.47 17.965 136.664 17.614C136.843 17.848 137.013 18.0664 137.184 18.2848C137.223 18.2614 137.262 18.2458 137.293 18.2224C137.238 18.394 137.161 18.5578 137.13 18.7372C137.114 18.8464 137.13 19.018 137.2 19.0726C137.44 19.2364 137.704 19.369 137.96 19.5016C137.999 19.5172 138.061 19.486 138.131 19.4704C138.076 19.1194 137.719 18.8698 137.859 18.4252C138.107 18.6436 138.348 18.8308 138.557 19.0492C138.62 19.1116 138.604 19.2598 138.596 19.369C138.542 19.8058 138.55 19.8448 138.945 19.9852C139.155 20.0554 139.38 20.0788 139.597 20.1412C139.706 20.1724 139.807 20.227 139.931 20.2738C139.659 20.7106 139.302 20.6248 138.86 20.5858C139.015 20.4688 139.116 20.3986 139.24 20.305C138.542 19.681 137.743 19.8448 136.866 19.9228C137.029 19.7356 137.153 19.7122 137.285 19.7044C137.417 19.6966 137.541 19.6966 137.75 19.6888C137.65 19.5484 137.619 19.4704 137.556 19.4314C137.378 19.2988 137.2 19.1506 136.998 19.057C136.804 18.9712 136.563 18.862 136.369 18.9088C136.036 18.979 135.733 18.9244 135.368 18.8464C135.523 18.6826 135.679 18.6748 135.842 18.6904C135.997 18.706 136.16 18.7372 136.299 18.7606C136.323 18.6982 136.338 18.6826 136.33 18.667C136.253 18.4564 135.686 17.8792 135.485 17.848C135.166 17.7934 134.848 17.7466 134.53 17.7076C134.367 17.6842 134.189 17.7076 134.088 17.3956L134.111 17.38Z" fill="black"/>
<path d="M149.683 13.6055C149.327 13.7459 149.311 14.0189 149.327 14.3231C149.342 14.8535 149.327 15.3917 149.327 15.9221C149.327 16.2445 149.438 16.5097 149.66 16.7177C149.497 16.9517 149.257 16.8347 149.063 16.8581C148.861 16.8737 148.651 16.8581 148.372 16.8581C148.442 16.7099 148.457 16.5929 148.512 16.5695C148.729 16.4837 148.729 16.3043 148.729 16.1171C148.729 15.4697 148.729 14.8301 148.729 14.1827C148.729 13.9877 148.737 13.8005 148.496 13.6991C148.357 13.6445 148.395 13.4261 148.535 13.4183C148.869 13.3949 149.202 13.4183 149.536 13.4261C149.583 13.4261 149.621 13.5197 149.691 13.5977L149.683 13.6055Z" fill="black"/>
<path d="M151.957 18.1449C151.81 18.3165 151.569 18.4257 151.499 18.7377C151.817 18.7377 152.12 18.6987 152.407 18.7455C152.71 18.7923 152.981 18.9405 153.222 19.1511C152.911 19.4553 152.601 19.5099 152.314 19.3149C152.112 19.1823 151.934 19.0185 151.662 19.1355C151.608 19.1589 151.507 19.0965 151.429 19.0653C151.251 19.0107 151.072 18.9483 150.84 18.8703C150.444 18.1371 150.405 17.2713 150.972 16.8501C151.181 17.0763 151.266 17.3649 151.282 17.6457C151.297 17.9265 151.212 18.2151 151.166 18.5037C151.29 18.6207 151.391 18.5349 151.491 18.4647C151.654 18.3555 151.81 18.2463 151.973 18.1449V18.1371L151.957 18.1449Z" fill="black"/>
<path d="M151.965 18.1525C152.074 17.9341 152.043 17.7469 151.911 17.5285C151.67 17.1151 151.476 16.6705 151.647 16.1713C151.686 16.0543 151.748 15.9451 151.802 15.8281C152.221 16.1089 152.291 16.2961 152.345 17.4661C152.477 17.4115 152.586 17.3647 152.702 17.3101C152.718 17.3725 152.725 17.4427 152.733 17.4895C153.059 17.4661 153.385 17.3959 153.68 17.4505C153.874 17.4817 154.037 17.7001 154.231 17.8483C154.068 18.0667 153.858 18.1057 153.657 18.0823C153.354 18.0511 153.036 18.0199 152.756 17.9185C152.407 17.7859 152.167 17.8483 151.949 18.1369L151.957 18.1525H151.965Z" fill="black"/>
<path d="M149.979 18.1055C150.212 18.6359 149.894 19.0259 149.692 19.4471C150.065 19.5563 150.259 19.2677 150.538 19.1975C150.406 19.3145 150.29 19.4315 150.166 19.5485C150.29 19.7513 150.468 19.7201 150.623 19.7279C151.12 19.7591 151.461 20.0477 151.787 20.3987C151.624 20.5781 151.454 20.5703 151.322 20.4533C151.035 20.2271 150.701 20.1569 150.36 20.0633C150.127 20.0009 149.902 19.8995 149.599 19.7903C149.304 19.9073 148.932 20.0555 148.567 20.2115C148.552 20.1881 148.544 20.1569 148.528 20.1335C148.668 20.0789 148.8 20.0165 148.94 19.9619C149.335 19.7981 149.335 19.7981 149.297 19.3769C149.273 19.1507 149.234 18.9245 149.258 18.7061C149.297 18.3707 149.258 18.2381 149.708 18.1679C149.785 18.1523 149.871 18.1289 149.987 18.0977L149.979 18.1055Z" fill="black"/>
<path d="M153.113 16.7486C153.058 16.616 153.012 16.4678 152.942 16.343C152.81 16.109 152.655 15.8984 152.523 15.6644C152.345 15.3368 152.368 14.9936 152.539 14.6348C153.128 14.9858 153.283 15.5396 153.26 16.1792C153.436 16.1064 153.578 15.9868 153.687 15.8204C153.687 15.9062 153.695 15.9998 153.702 16.1168C153.959 16.0466 154.207 15.9062 154.424 15.9374C154.649 15.9686 154.851 16.1714 155.068 16.304C154.983 16.5068 154.828 16.5614 154.657 16.5692C154.362 16.577 154.067 16.6082 153.78 16.5536C153.508 16.5068 153.291 16.5458 153.097 16.7408L153.105 16.7486H153.113Z" fill="black"/>
<path d="M153.114 13.3086C153.316 13.5114 153.564 13.6908 153.712 13.9326C153.859 14.1744 153.906 14.4708 153.999 14.7516C154.262 14.7282 154.216 14.4786 154.325 14.3538C154.348 14.4162 154.379 14.4864 154.402 14.5566C154.441 14.5566 154.487 14.5722 154.495 14.5566C154.907 14.112 155.31 14.3772 155.721 14.5956C155.481 14.9544 155.1 14.9856 154.736 15.048C154.643 15.0636 154.542 15.0636 154.441 15.048C154.2 15.0168 154.03 15.1026 153.968 15.3366C153.859 15.1962 153.758 15.0636 153.657 14.931C153.486 14.7282 153.3 14.541 153.145 14.3226C152.943 14.034 152.928 13.6986 152.998 13.371C153.029 13.3554 153.067 13.332 153.099 13.3164L153.114 13.3086Z" fill="black"/>
<path d="M26.5598 21.0532C26.8003 21.022 27.0487 20.9908 27.328 20.9518C27.5453 21.2014 27.7703 21.4588 28.0264 21.7474C27.6539 21.8956 27.3513 21.9502 27.0099 21.88C26.7538 21.8332 26.4822 21.8332 26.2184 21.841C25.9002 21.8488 25.6209 21.7552 25.3027 21.5836C25.4114 21.3886 25.489 21.2014 25.6131 21.0376C25.908 20.6398 26.2416 20.6476 26.5598 21.0454V21.0532Z" fill="#D92A64"/>
<path d="M133.025 11.3199C133.11 11.1405 133.141 11.0703 133.164 11.0157C133.18 11.1873 133.188 11.3745 133.203 11.5695C133.42 11.5773 133.444 11.4291 133.498 11.3277C133.638 11.0547 133.839 10.8597 134.111 10.7193C134.235 10.6569 134.344 10.6491 134.445 10.7583C134.545 10.8675 134.545 10.9767 134.468 11.1015C134.266 11.4369 133.964 11.6709 133.607 11.8035C133.296 11.9205 133.063 12.0531 133.149 12.4431C133.149 12.3885 133.149 12.3417 133.149 12.2871C133.195 11.9205 133.04 11.7255 132.691 11.6085C132.21 11.4525 131.907 11.0937 131.752 10.6179C131.736 10.5711 131.752 10.5165 131.752 10.4385C132.35 10.4385 132.699 10.7817 133.025 11.3277V11.3199Z" fill="black"/>
<path d="M133.467 9.93179C133.84 9.42479 134.228 9.05039 134.903 9.12839C134.794 9.52619 134.585 9.79919 134.243 9.95519C133.917 10.1034 133.568 10.197 133.227 10.3218C133.281 10.1112 133.165 9.99419 132.971 9.87719C132.629 9.68219 132.319 9.43259 132.203 9.02699C132.156 8.87099 132.148 8.70719 132.117 8.50439C132.552 8.59019 132.831 8.80079 133.025 9.12839C133.165 9.36239 133.281 9.61199 133.46 9.93959L133.467 9.93179Z" fill="black"/>
<path d="M154.417 13.2309C154.689 12.9345 154.658 12.6615 154.681 12.3573C154.696 12.5679 154.704 12.7317 154.72 12.9891C154.976 12.7863 155.17 12.6303 155.379 12.4743C155.589 12.5835 155.783 12.6849 156 12.7941C155.791 13.1997 155.418 13.2933 155.03 13.3557C154.813 13.3947 154.58 13.4025 154.502 13.6677C153.921 13.2387 153.238 12.8955 153.253 11.9829C153.921 12.1233 154.208 12.6225 154.425 13.2309H154.417Z" fill="black"/>
<path d="M135.461 7.69315C135.081 8.44975 134.413 8.51995 133.8 8.55115C133.638 8.35615 133.537 8.20015 133.405 8.07535C133.032 7.71655 132.776 7.32655 132.893 6.78055C132.9 6.74155 132.924 6.71035 132.947 6.64795C133.319 6.81175 133.56 7.07695 133.676 7.45915C133.746 7.69315 133.816 7.92715 133.901 8.20795C134.173 8.02855 134.39 7.85695 134.631 7.74775C134.879 7.63855 135.158 7.61515 135.461 7.70095V7.69315Z" fill="black"/>
<path d="M153.935 8.23875C154.052 7.90335 154.137 7.63815 154.23 7.37295C154.347 7.05315 154.556 6.82695 154.882 6.70215C155.115 7.02975 154.998 7.33395 154.843 7.61475C154.735 7.80975 154.564 7.95795 154.416 8.12955C154.316 8.25435 154.207 8.37915 154.091 8.51955C153.384 8.60535 152.74 8.30115 152.469 7.71615C153.066 7.51335 153.501 7.82535 153.935 8.24655V8.23875Z" fill="black"/>
<path d="M154.666 10.2903C154.348 10.1889 154.022 10.1109 153.712 9.98606C153.316 9.82226 153.122 9.57266 152.951 9.12026C153.254 9.06566 153.541 9.12026 153.774 9.29186C153.999 9.44786 154.177 9.66626 154.402 9.88466C154.55 9.62726 154.689 9.38546 154.829 9.15146C154.868 9.08126 154.914 9.00326 154.969 8.94086C155.139 8.74586 155.217 8.73026 155.458 8.87846C155.52 8.91746 155.574 8.94866 155.644 8.98766C155.566 9.47126 155.209 9.68966 154.86 9.91586C154.72 10.0095 154.542 10.0719 154.666 10.2981V10.2903Z" fill="black"/>
<path d="M136.237 6.35953C135.779 7.03813 135.143 6.99133 134.53 6.92113C134.382 6.69493 134.266 6.49993 134.134 6.30493C133.878 5.93053 133.738 5.53273 133.924 5.08033C133.94 5.03353 133.986 4.99453 134.033 4.93213C134.281 5.13493 134.483 5.33773 134.53 5.64973C134.576 5.96173 134.607 6.27373 134.654 6.63253C134.91 6.50773 135.143 6.36733 135.391 6.28153C135.655 6.19573 135.942 6.19573 136.245 6.35173L136.237 6.35953Z" fill="black"/>
<path d="M153.199 6.67888C153.37 6.03148 153.184 5.34508 153.851 4.95508C154.138 5.47768 153.999 5.93008 153.696 6.36688C153.58 6.53068 153.487 6.71008 153.355 6.92847C152.773 6.95967 152.129 7.03767 151.663 6.37468C152.253 6.04708 152.718 6.33568 153.199 6.67108V6.67888Z" fill="black"/>
<path d="M155.922 11.0158C155.705 11.6008 154.999 11.5072 154.696 11.9518C153.897 11.7412 153.268 11.2342 153.214 10.54C153.54 10.5556 153.819 10.6882 154.036 10.8988C154.238 11.0938 154.393 11.3512 154.564 11.5852C154.743 11.3824 154.913 11.1952 155.068 10.9924C155.317 10.6648 155.379 10.6492 155.72 10.8598C155.79 10.8988 155.844 10.9612 155.922 11.0158Z" fill="black"/>
<path d="M137.255 5.18917C136.673 5.74297 136.067 5.66497 135.493 5.43097C135.416 5.21257 135.353 5.03317 135.284 4.86157C135.082 4.39357 134.958 3.93337 135.338 3.48877C135.757 3.75397 135.842 4.31557 135.594 5.22817C135.881 5.14237 136.145 5.03317 136.424 4.97857C136.704 4.93177 136.975 4.97857 137.262 5.18917H137.255Z" fill="black"/>
<path d="M131.59 12.3723C132.164 12.2787 132.537 12.4035 132.839 12.7467C132.94 12.8559 133.01 13.0353 133.212 12.8793C133.266 12.9807 133.32 13.0743 133.375 13.1835C133.437 13.1601 133.491 13.1523 133.506 13.1211C133.576 12.9807 133.623 12.8403 133.693 12.6999C133.825 12.4191 133.902 12.3489 134.251 12.2163C134.282 12.3957 134.337 12.5751 134.337 12.7467C134.337 12.8481 134.282 12.9729 134.205 13.0353C134.042 13.1913 133.856 13.3083 133.685 13.4487C133.576 13.5423 133.483 13.6437 133.398 13.7295C133.382 13.5735 133.289 13.4097 133.041 13.3707C132.948 13.3551 132.808 13.3473 132.769 13.2927C132.575 12.9807 132.249 12.8949 131.955 12.7545C131.838 12.6999 131.761 12.5439 131.598 12.3723H131.59Z" fill="black"/>
<path d="M152.524 3.43457C152.858 3.91037 152.812 4.37057 152.61 4.84637C152.532 5.01797 152.478 5.19737 152.385 5.43137C151.826 5.68097 151.244 5.69657 150.67 5.22077C150.91 4.96337 151.205 4.93217 151.485 4.98677C151.764 5.04137 152.02 5.17397 152.338 5.28317C152.206 4.63577 151.935 3.99617 152.524 3.44237V3.43457Z" fill="black"/>
<path d="M136.921 2.17871C137.347 2.81051 137.014 3.35651 136.797 3.97271C137.099 3.92591 137.363 3.84791 137.627 3.85571C137.898 3.85571 138.17 3.93371 138.356 4.18331C137.891 4.60451 137.417 4.58111 136.711 4.14431C136.665 3.89471 136.634 3.66071 136.572 3.43451C136.432 2.95871 136.556 2.55311 136.921 2.18651V2.17871Z" fill="black"/>
<path d="M151.135 4.15221C150.537 4.51101 149.986 4.53441 149.528 4.17561C149.994 3.72321 150.498 3.80901 151.111 4.06641C150.995 3.76221 150.925 3.55161 150.832 3.34881C150.653 2.95881 150.669 2.59221 150.917 2.24121C151.298 2.50641 151.422 2.94321 151.274 3.50481C151.22 3.69981 151.189 3.90261 151.135 4.16001V4.15221Z" fill="black"/>
<path d="M148.233 3.38804C148.567 2.80304 149.134 2.95904 149.715 2.95904C149.537 2.67044 149.405 2.42864 149.258 2.20244C149.048 1.87484 149.079 1.53944 149.196 1.16504C149.529 1.35224 149.7 1.60964 149.739 1.94504C149.77 2.29604 149.762 2.64704 149.762 2.99804C149.762 3.04484 149.731 3.10724 149.7 3.14624C149.405 3.52844 148.738 3.64543 148.249 3.38804H148.233Z" fill="black"/>
<path d="M131.971 14.2916C132.421 14.1434 132.848 14.1122 133.228 14.4476C133.336 14.5412 133.453 14.6426 133.577 14.471C133.647 14.5724 133.717 14.6738 133.818 14.822C134.097 14.4866 133.949 13.9718 134.399 13.7378C134.462 13.9718 134.547 14.1902 134.57 14.4164C134.578 14.5178 134.493 14.6504 134.407 14.7362C134.237 14.9 134.043 15.0404 133.856 15.1886C133.29 14.9234 132.63 14.6114 131.971 14.2994V14.2916Z" fill="black"/>
<path d="M145.184 22.7303C145.098 22.5587 145.044 22.3715 144.935 22.2155C144.819 22.0439 144.679 21.8645 144.501 21.7631C144.004 21.4823 143.492 21.2327 142.98 20.9831C142.887 20.9363 142.763 20.9285 142.654 20.9207C142.274 20.9129 142.274 20.9207 141.878 20.6009C141.979 20.6009 142.049 20.5697 142.095 20.6009C142.452 20.7803 142.801 20.6711 143.151 20.5697C143.306 20.5229 143.453 20.4683 143.57 20.6243C143.841 20.9831 144.252 21.1469 144.633 21.3497C144.827 21.4511 144.92 21.5759 144.974 21.7787C145.052 22.0907 145.16 22.3871 145.261 22.6913C145.238 22.6991 145.215 22.7147 145.191 22.7225L145.184 22.7303Z" fill="black"/>
<path d="M134.839 15.29C134.971 15.4694 135.111 15.641 135.266 15.8438C135.08 16.1246 134.901 16.4054 134.715 16.6862C134.381 16.4678 134.017 16.2416 133.567 16.2572C133.349 16.265 133.171 16.1714 133.031 15.9374C133.318 15.8204 133.567 15.8672 133.799 15.9998C133.931 16.07 134.04 16.1714 134.226 16.0778C134.296 16.0388 134.436 16.148 134.591 16.2104C134.638 15.8906 134.684 15.5942 134.723 15.29C134.762 15.29 134.8 15.29 134.839 15.29Z" fill="black"/>
<path d="M138.076 2.96682C138.666 2.96682 139.263 2.75622 139.667 3.38022C139.155 3.72342 138.542 3.57522 138.076 2.96682Z" fill="black"/>
<path d="M138.673 1.19629C138.898 1.84369 138.595 2.29609 138.262 2.76409C137.928 2.24929 138.114 1.53169 138.673 1.19629Z" fill="black"/>
<path d="M148.078 1.93721C147.589 1.59401 147.263 1.18841 147.372 0.541016C147.915 0.736015 148.21 1.32101 148.078 1.93721Z" fill="black"/>
<path d="M146.829 2.83368C147.178 2.24088 147.481 2.12388 148.21 2.24088C147.869 2.80248 147.504 2.95848 146.829 2.83368Z" fill="black"/>
<path d="M141.023 2.86547C140.387 2.95127 140.116 2.84207 139.728 2.33507C140.162 1.99187 140.915 2.30387 141.023 2.86547Z" fill="black"/>
<path d="M140.466 0.501953C140.621 1.18055 140.28 1.58615 139.822 1.93715C139.597 1.46915 139.853 0.868553 140.466 0.501953Z" fill="black"/>
<path d="M145.301 21.7872C145.324 21.7092 145.324 21.6078 145.378 21.5532C145.471 21.4518 145.588 21.366 145.712 21.3036C146.116 21.0774 146.519 20.859 146.923 20.6406C146.977 20.6094 147.047 20.6016 147.132 20.6172C146.915 20.9058 146.573 21.015 146.294 21.2178C145.999 21.4284 145.697 21.6312 145.402 21.834L145.301 21.7872Z" fill="black"/>
<path d="M148.124 18.6978C148.248 18.807 148.333 18.8928 148.434 18.9786C148.682 19.1892 148.706 19.3062 148.535 19.5714C148.481 19.665 148.419 19.7586 148.333 19.899C148.155 19.587 148.031 19.392 147.93 19.1814C147.829 18.9786 147.953 18.846 148.124 18.7056V18.6978Z" fill="black"/>
<path d="M150.072 21.4128C149.792 21.3894 149.567 21.2178 148.861 20.5002C149.35 20.469 149.893 20.8824 150.072 21.4128Z" fill="black"/>
<path d="M146.037 1.49179C146.503 1.24219 146.774 1.31239 147.162 1.77259C146.72 1.89739 146.379 1.77259 146.037 1.49179Z" fill="black"/>
<path d="M141.817 1.48419C141.483 1.77279 141.157 1.89759 140.754 1.76499C141.08 1.33599 141.351 1.25799 141.817 1.48419Z" fill="black"/>
<path d="M141.001 20.7341C140.682 20.7575 140.45 20.5859 140.217 20.4143C140.527 20.3831 140.768 20.5547 141.001 20.7341Z" fill="black"/>
<path d="M139.427 19.7043C139.349 19.5561 139.272 19.4079 139.171 19.2051C139.378 19.2779 139.463 19.4443 139.427 19.7043Z" fill="black"/>
<path d="M3.7708 69.7544C3.81736 69.8324 3.85615 69.8714 3.85615 69.9104C3.85615 69.9494 3.80184 69.9884 3.7708 70.0196C3.73976 69.9806 3.67768 69.9494 3.66992 69.9104C3.66992 69.8714 3.71648 69.8324 3.7708 69.7544Z" fill="black"/>
<path d="M153.105 16.7407C153.074 16.8265 153.036 16.9045 153.005 16.9903C152.989 16.9825 152.974 16.9747 152.958 16.9591C153.012 16.8889 153.067 16.8187 153.113 16.7485L153.105 16.7407Z" fill="black"/>
</svg>
