<svg width="40" height="40" viewBox="0 0 40 40" fill="none" xmlns="http://www.w3.org/2000/svg">
<circle cx="20" cy="20" r="20" fill="#1E1E1E"/>
<path d="M19.9997 0C8.97196 0 0 8.97196 0 20C0 31.0284 8.97196 40 19.9997 40C31.0277 40 40 31.0284 40 20C39.9997 8.97196 31.0274 0 19.9997 0ZM19.9997 38.0274C10.0595 38.0274 1.97258 29.9405 1.97258 20C1.97258 10.0598 10.0595 1.97258 19.9997 1.97258C29.9398 1.97258 38.0274 10.0598 38.0274 20C38.0271 29.9405 29.9398 38.0274 19.9997 38.0274Z" fill="#FF00D6"/>
<path d="M12.0655 16.4629H16.1432V27.103H12.0655V16.4629Z" fill="#FF00D6"/>
<path d="M14.0638 14.7655C15.2036 14.7655 16.1276 13.9226 16.1276 12.8828C16.1276 11.8429 15.2036 11 14.0638 11C12.924 11 12 11.8429 12 12.8828C12 13.9226 12.924 14.7655 14.0638 14.7655Z" fill="#FF00D6"/>
<path d="M26.3932 16.2225C25.5582 16.2225 24.8505 16.3745 24.2689 16.6784C23.6879 16.9825 23.1138 17.4882 22.5458 18.1962V16.4629H18.7484V27.103H22.8261V21.9932C22.8261 21.0246 22.9799 20.3538 23.2873 19.9796C23.5946 19.6056 23.9949 19.4185 24.4893 19.4185C24.9368 19.4185 25.2841 19.5572 25.5315 19.8344C25.7789 20.1116 25.902 20.5841 25.902 21.2523V27.103H30V20.3405C30 18.9377 29.6808 17.9007 29.0427 17.2293C28.4055 16.5579 27.5217 16.2225 26.3932 16.2225Z" fill="#FF00D6"/>
</svg>
