<svg width="99" height="104" viewBox="0 0 99 104" fill="none" xmlns="http://www.w3.org/2000/svg">
<rect width="81" height="90" transform="translate(9 7)" fill="#292929"/>
<path fill-rule="evenodd" clip-rule="evenodd" d="M9 7H75.3132L90 97H22.6562L9 7ZM48.5713 81.6591L50.2696 70.0497H60.8835V69.8802L62.5818 81.6591H71.9221L62.2421 22.3409H48.6973L44.7844 51.7912L42.2646 67.232L36.3002 22.3409H26.875L35.8756 81.6591H48.5713ZM51.3734 61.9994H59.7797L55.6604 32.971L52.6582 52.757L51.3734 61.9994Z" fill="url(#paint0_linear_531_429)"/>
<path fill-rule="evenodd" clip-rule="evenodd" d="M9 7H75.3132L90 97H22.6562L9 7ZM48.5713 81.6591L50.2696 70.0497H60.8835V69.8802L62.5818 81.6591H71.9221L62.2421 22.3409H48.6973L44.7844 51.7912L42.2646 67.232L36.3002 22.3409H26.875L35.8756 81.6591H48.5713ZM51.3734 61.9994H59.7797L55.6604 32.971L52.6582 52.757L51.3734 61.9994Z" fill="#FFFBF4" fill-opacity="0.4"/>
<path d="M98.2354 104H16.6377L0.857422 0H81.2637L98.2354 104ZM9 7L22.6562 97H90L75.3135 7H9ZM36.2998 22.3408L42.2646 67.2324L44.7842 51.791L48.6973 22.3408H62.2422L71.9219 81.6592H62.582L60.8838 70.0498H50.2695L48.5713 81.6592H35.876L26.875 22.3408H36.2998ZM52.6582 52.7568L51.373 61.999H59.7793L55.6602 32.9707L52.6582 52.7568Z" fill="#292929"/>
<defs>
<linearGradient id="paint0_linear_531_429" x1="9" y1="7" x2="110.033" y2="52.9814" gradientUnits="userSpaceOnUse">
<stop stop-color="#FF00D6"/>
<stop offset="0.529" stop-color="#5768BE"/>
<stop offset="1" stop-color="#61E8AF"/>
</linearGradient>
</defs>
</svg>
