<svg width="107" height="24" viewBox="0 0 107 24" fill="none" xmlns="http://www.w3.org/2000/svg">
<g clip-path="url(#clip0_511_469)">
<path d="M30.7098 12.2479C31.1118 12.2479 31.485 12.1897 31.8295 12.0733C32.1884 11.9422 32.4684 11.7748 32.6695 11.5711C32.9566 11.2799 33.2007 10.9305 33.4017 10.523C33.6027 10.1008 33.703 9.62039 33.703 9.08182C33.703 8.60142 33.6027 8.1356 33.4017 7.68436C33.2149 7.21854 32.9708 6.82547 32.6695 6.50523C32.4254 6.25777 32.124 6.06853 31.7651 5.93753C31.4203 5.79195 31.0399 5.71916 30.6237 5.71916H28.6857V12.2479H30.7098ZM28.6857 13.8419V18.1217L30.7315 18.5803V19.8468H24.0775V18.5803L25.8863 18.1217V5.85016L24.0775 5.39164V4.12518H31.8511C32.5257 4.12518 33.1359 4.21978 33.6813 4.40903C34.2413 4.58373 34.7078 4.83845 35.0814 5.17328C35.5837 5.6391 35.9783 6.18498 36.2654 6.81093C36.5671 7.43687 36.7176 8.09921 36.7176 8.79794C36.7176 9.52579 36.56 10.2536 36.2441 10.9815C35.9424 11.7093 35.5407 12.2989 35.038 12.7501C34.6647 13.1432 34.1983 13.427 33.6383 13.6017C33.0786 13.7619 32.4756 13.8419 31.8295 13.8419H28.6857Z" fill="#194863"/>
<path d="M41.7681 13.9062C41.7681 14.372 41.7681 14.7796 41.7681 15.129C41.7827 15.4638 41.7969 15.7622 41.8111 16.0242C41.8399 16.2716 41.8688 16.4829 41.8972 16.6575C41.9403 16.8321 41.9833 16.985 42.0267 17.1161C42.1413 17.4653 42.3281 17.7345 42.5864 17.9239C42.8593 18.0985 43.1318 18.186 43.4047 18.186C43.7925 18.186 44.144 18.1132 44.46 17.9675C44.7756 17.822 45.0702 17.6255 45.3427 17.3782C45.6586 17.0869 45.8885 16.7521 46.0319 16.3734C46.1898 15.9807 46.283 15.4781 46.3119 14.8669V9.69192L44.4383 9.27708V8.05427H49.0465V18.2076L50.7048 18.6226V19.8455L46.721 20.0636L46.4841 17.6618H46.398C45.9817 18.4041 45.4146 18.9938 44.6969 19.4304C43.979 19.8527 43.2108 20.0636 42.3925 20.0636C41.8471 20.0636 41.3447 19.9618 40.8854 19.758C40.4403 19.5543 40.0884 19.263 39.8301 18.8847C39.543 18.4772 39.3348 17.9091 39.2057 17.1816C39.0908 16.4389 39.0335 15.4418 39.0335 14.19V9.69192L37.5904 9.27708V8.05427H41.7681V13.9062Z" fill="#194863"/>
<path d="M53.2533 4.47682L51.595 4.06194V2.81733H55.9879V18.1895L57.6459 18.6042V19.849H51.595V18.6042L53.2533 18.1895V4.47682Z" fill="#194863"/>
<path d="M63.3777 18.7339C63.7367 18.7339 64.074 18.6975 64.3899 18.6248C64.7059 18.5521 64.9784 18.4502 65.2082 18.3192C65.4523 18.1882 65.6388 18.028 65.7683 17.8386C65.9116 17.6349 65.9835 17.4092 65.9835 17.1618C65.9835 16.8706 65.8903 16.6161 65.7035 16.3976C65.5313 16.1791 65.2944 15.9901 64.993 15.8299C64.7059 15.6697 64.3757 15.5315 64.0025 15.4148C63.6435 15.2842 63.2845 15.1603 62.9255 15.0437C62.4808 14.9127 62.0428 14.7526 61.6119 14.5634C61.1956 14.3596 60.8153 14.1122 60.4709 13.821C60.1407 13.5153 59.875 13.1587 59.6739 12.7511C59.4729 12.3435 59.3726 11.8631 59.3726 11.31C59.3726 10.2619 59.7458 9.42482 60.4923 8.79888C61.2387 8.15839 62.3082 7.83815 63.7008 7.83815C64.3611 7.83815 64.9571 7.9109 65.4883 8.05648C66.0195 8.20206 66.4717 8.41312 66.8449 8.68969C67.2181 8.95173 67.5052 9.27197 67.7063 9.65046C67.9215 10.0144 68.0293 10.4147 68.0293 10.8514C68.0293 11.3609 67.8927 11.7467 67.6201 12.0087C67.3615 12.2707 67.0029 12.4017 66.5432 12.4017C66.0838 12.4017 65.7252 12.2925 65.4666 12.0742C65.2082 11.8413 65.0791 11.572 65.0791 11.2663C65.0791 11.0188 65.151 10.7859 65.2944 10.5676C65.4381 10.3346 65.6245 10.1599 65.8544 10.0435C65.6533 9.76691 65.3804 9.55585 65.036 9.41028C64.7059 9.25015 64.2896 9.17009 63.7869 9.17009C63.1123 9.17009 62.6099 9.31567 62.2797 9.60679C61.9496 9.88337 61.7845 10.2764 61.7845 10.7859C61.7845 11.3682 61.9709 11.8049 62.3441 12.096C62.7174 12.3726 63.2201 12.6055 63.8516 12.7948C64.4259 12.9695 64.993 13.1514 65.5527 13.3406C66.1127 13.5299 66.6079 13.7628 67.0384 14.0394C67.4835 14.3159 67.8354 14.658 68.0937 15.0656C68.3666 15.4588 68.5029 15.939 68.5029 16.5067C68.5029 17.0744 68.3666 17.5841 68.0937 18.0352C67.8354 18.4718 67.4693 18.843 66.9954 19.149C66.5361 19.4398 65.9906 19.6655 65.3591 19.8257C64.7272 19.9859 64.0455 20.0659 63.3133 20.0659C61.935 20.0659 60.8584 19.8113 60.0831 19.3016C59.3224 18.7922 58.9417 18.1007 58.9417 17.2274C58.9417 16.6305 59.1068 16.1647 59.437 15.8299C59.7671 15.4951 60.1621 15.3277 60.6214 15.3277C60.9662 15.3277 61.2818 15.4296 61.5689 15.6333C61.8706 15.8227 62.0211 16.0992 62.0211 16.4631C62.0211 16.7252 61.9421 16.9797 61.7845 17.2274C61.6265 17.4747 61.4468 17.6568 61.2458 17.7731C61.3896 18.006 61.6265 18.2245 61.9567 18.4283C62.2869 18.632 62.7604 18.7339 63.3777 18.7339Z" fill="#194863"/>
<path d="M72.8876 14.2577C72.8876 15.2474 73.0314 16.07 73.3185 16.7252C73.7778 17.7587 74.5673 18.2753 75.6873 18.2753C76.3331 18.2753 76.965 18.137 77.5823 17.8606C78.1996 17.5694 78.7308 17.1255 79.1758 16.5286L80.3386 17.4455C79.8362 18.1734 79.1541 18.7922 78.2928 19.3016C77.4456 19.8113 76.3978 20.0659 75.1487 20.0659C74.0866 20.0659 73.1747 19.8549 72.4141 19.4326C71.6676 18.996 71.0934 18.3628 70.6913 17.533C70.4761 17.0819 70.3181 16.5869 70.2174 16.0481C70.1171 15.4951 70.0669 14.8911 70.0669 14.2359C70.0669 12.1979 70.5262 10.6258 71.4449 9.51946C72.3639 8.39857 73.6775 7.83815 75.3856 7.83815C76.1609 7.83815 76.8643 7.96187 77.4962 8.20933C78.1277 8.44224 78.6589 8.78433 79.0894 9.23561C79.5345 9.67231 79.8718 10.2182 80.1016 10.8733C80.3457 11.5137 80.4677 12.2416 80.4677 13.0568C80.4677 13.2169 80.4606 13.377 80.446 13.5372C80.446 13.6827 80.4318 13.9229 80.403 14.2577H72.8876ZM75.3426 9.34476C73.8639 9.34476 73.0527 10.5166 72.9093 12.8603H77.6467V12.2925C77.6467 11.3464 77.4456 10.6185 77.0439 10.109C76.6419 9.59952 76.0748 9.34476 75.3426 9.34476Z" fill="#194863"/>
<path d="M83.3461 4.47682L81.6881 4.06194V2.81733H86.081V18.1895L87.739 18.6042V19.849H81.6881V18.6042L83.3461 18.1895V4.47682Z" fill="#194863"/>
<path d="M95.9731 19.3214C95.6144 20.1655 95.2842 20.8862 94.9825 21.4831C94.6954 22.0799 94.3869 22.5601 94.0568 22.9241C93.7408 23.3028 93.3889 23.5721 93.0015 23.7319C92.614 23.9069 92.1401 23.994 91.5801 23.994C91.2357 23.994 90.9126 23.9432 90.6113 23.8413C90.3242 23.7539 90.0659 23.6228 89.836 23.4482C89.6208 23.2736 89.4482 23.0699 89.3191 22.837C89.1899 22.6041 89.1255 22.3492 89.1255 22.0727C89.1255 21.563 89.2689 21.1411 89.556 20.8063C89.8574 20.4859 90.2452 20.3257 90.7187 20.3257C91.1354 20.3257 91.451 20.4204 91.6666 20.6097C91.8961 20.7987 92.011 21.0828 92.011 21.4611C92.011 21.5338 91.9893 21.6213 91.9462 21.7232C91.9178 21.8398 91.8601 21.9489 91.774 22.0508C91.7021 22.167 91.6018 22.2617 91.4727 22.3344C91.3435 22.4075 91.1927 22.4439 91.0205 22.4439C91.0489 22.5893 91.1279 22.684 91.2574 22.7275C91.4008 22.7859 91.5299 22.815 91.6449 22.815C91.7882 22.815 91.9249 22.7931 92.054 22.7495C92.1974 22.7203 92.334 22.6329 92.4632 22.4874C92.6066 22.3564 92.7503 22.1526 92.8937 21.8762C93.0517 21.6141 93.2167 21.2574 93.3889 20.8063L93.6476 19.9981L89.3191 9.69192L88.0272 9.27708V8.05427H93.4968L93.669 9.27708L92.1401 9.69192L94.789 17.2687H94.8751L97.2653 9.69192L96.0161 9.27708V8.05427H100.754V9.27708L99.4402 9.69192L95.9731 19.3214Z" fill="#194863"/>
<path d="M0.5 -0.00341797C3.68745 -0.00341797 6.27141 2.66278 6.27141 5.95168V23.8169C3.08396 23.8169 0.5 21.1509 0.5 17.8617V-0.00341797Z" fill="#0EB2A5"/>
<path d="M9.30961 5.95168C9.30961 2.66278 11.939 -0.00341797 15.1825 -0.00341797V9.92175C15.1825 13.2106 12.5531 15.8767 9.30961 15.8767V5.95168Z" fill="#0EB2A5"/>
</g>
<defs>
<clipPath id="clip0_511_469">
<rect width="106" height="24" fill="white" transform="translate(0.5 -0.00341797)"/>
</clipPath>
</defs>
</svg>
