<svg width="142" height="32" viewBox="0 0 142 32" fill="none" xmlns="http://www.w3.org/2000/svg">
<path d="M40.4697 16.3351C41.0083 16.3351 41.5083 16.2575 41.9696 16.1022C42.4506 15.9275 42.8257 15.7043 43.0949 15.4326C43.4796 15.0444 43.8065 14.5786 44.0758 14.0352C44.3451 13.4723 44.4795 12.8318 44.4795 12.1137C44.4795 11.4731 44.3451 10.852 44.0758 10.2504C43.8256 9.62927 43.4986 9.10518 43.0949 8.67819C42.768 8.34825 42.3643 8.09593 41.8834 7.92126C41.4215 7.72716 40.912 7.63011 40.3544 7.63011H37.7582V16.3351H40.4697ZM37.7582 18.4604V24.1668L40.4988 24.7783V26.4669H31.5849V24.7783L34.0081 24.1668V7.80477L31.5849 7.19342V5.5048H41.9987C42.9024 5.5048 43.7198 5.63093 44.4505 5.88326C45.2007 6.11619 45.8255 6.45583 46.326 6.90226C46.999 7.52336 47.5276 8.2512 47.9122 9.08579C48.3164 9.92038 48.518 10.8035 48.518 11.7351C48.518 12.7056 48.3068 13.6761 47.8836 14.6465C47.4794 15.617 46.9413 16.403 46.2678 17.0048C45.7679 17.5288 45.143 17.9073 44.3928 18.1402C43.6431 18.3537 42.8352 18.4604 41.9696 18.4604H37.7582Z" fill="#194863"/>
<path d="M55.2836 18.5461C55.2836 19.1672 55.2836 19.7106 55.2836 20.1765C55.3032 20.6229 55.3223 21.0208 55.3413 21.3702C55.3799 21.7 55.4185 21.9817 55.4567 22.2145C55.5143 22.4473 55.572 22.6513 55.6302 22.826C55.7836 23.2916 56.0339 23.6506 56.3799 23.9031C56.7455 24.1359 57.1106 24.2525 57.4761 24.2525C57.9956 24.2525 58.4666 24.1556 58.8898 23.9612C59.3126 23.7672 59.7072 23.5052 60.0723 23.1754C60.4955 22.7871 60.8034 22.3407 60.9955 21.8358C61.2071 21.3121 61.332 20.6421 61.3706 19.8271V12.9271L58.8607 12.374V10.7436H65.034V24.2813L67.2555 24.8347V26.4652L61.9187 26.7561L61.6013 23.5537H61.486C60.9283 24.5434 60.1686 25.3296 59.2072 25.9118C58.2454 26.4748 57.2164 26.7561 56.1201 26.7561C55.3895 26.7561 54.7165 26.6203 54.1011 26.3486C53.5049 26.0769 53.0335 25.6886 52.6875 25.1841C52.3028 24.6408 52.024 23.8834 51.851 22.9134C51.6971 21.9232 51.6203 20.5936 51.6203 18.9246V12.9271L49.6871 12.374V10.7436H55.2836V18.5461Z" fill="#194863"/>
<path d="M70.6696 5.97366L68.448 5.42048V3.761H74.3329V24.2572L76.554 24.8102V26.4699H68.448V24.8102L70.6696 24.2572V5.97366Z" fill="#194863"/>
<path d="M84.2324 24.9831C84.7133 24.9831 85.1652 24.9346 85.5884 24.8377C86.0116 24.7407 86.3767 24.6049 86.6846 24.4302C87.0116 24.2554 87.2614 24.0419 87.4348 23.7894C87.6269 23.5177 87.7232 23.2168 87.7232 22.887C87.7232 22.4987 87.5983 22.1594 87.3481 21.868C87.1174 21.5767 86.8 21.3247 86.3963 21.1111C86.0116 20.8975 85.5693 20.7132 85.0694 20.5577C84.5884 20.3834 84.1075 20.2183 83.6266 20.0628C83.0308 19.8881 82.4441 19.6747 81.8669 19.4225C81.3093 19.1507 80.7998 18.8208 80.3384 18.4326C79.8961 18.025 79.54 17.5494 79.2707 17.006C79.0015 16.4625 78.867 15.822 78.867 15.0845C78.867 13.687 79.367 12.571 80.367 11.7364C81.3669 10.8824 82.7997 10.4554 84.6652 10.4554C85.5498 10.4554 86.3481 10.5524 87.0597 10.7465C87.7713 10.9406 88.3771 11.222 88.8771 11.5908C89.3771 11.9402 89.7617 12.3672 90.031 12.8718C90.3194 13.3571 90.4638 13.8908 90.4638 14.4731C90.4638 15.1524 90.2808 15.6668 89.9157 16.0161C89.5692 16.3655 89.0887 16.5402 88.4729 16.5402C87.8576 16.5402 87.3772 16.3946 87.0307 16.1035C86.6846 15.793 86.5116 15.4339 86.5116 15.0263C86.5116 14.6963 86.6079 14.3857 86.8 14.0946C86.9925 13.7841 87.2423 13.5511 87.5502 13.3959C87.2809 13.0271 86.9153 12.7457 86.4539 12.5516C86.0116 12.3381 85.454 12.2313 84.7805 12.2313C83.8768 12.2313 83.2038 12.4255 82.7615 12.8136C82.3192 13.1824 82.0981 13.7064 82.0981 14.3857C82.0981 15.1621 82.3478 15.7444 82.8478 16.1326C83.3478 16.5014 84.0213 16.8119 84.8673 17.0642C85.6365 17.2972 86.3963 17.5397 87.146 17.7921C87.8962 18.0444 88.5597 18.3549 89.1364 18.7237C89.7327 19.0925 90.204 19.5486 90.5501 20.0921C90.9156 20.6162 91.0982 21.2565 91.0982 22.0135C91.0982 22.7704 90.9156 23.45 90.5501 24.0515C90.204 24.6337 89.7136 25.1285 89.0787 25.5365C88.4634 25.9243 87.7327 26.2253 86.8867 26.4389C86.0402 26.6525 85.127 26.759 84.1461 26.759C82.2997 26.759 80.8574 26.4197 79.8189 25.74C78.7998 25.0609 78.2899 24.1388 78.2899 22.9744C78.2899 22.1786 78.511 21.5575 78.9533 21.1111C79.3956 20.6647 79.9247 20.4415 80.54 20.4415C81.0018 20.4415 81.4246 20.5773 81.8092 20.849C82.2134 21.1015 82.415 21.4701 82.415 21.9554C82.415 22.3048 82.3092 22.6441 82.0981 22.9744C81.8865 23.3041 81.6458 23.547 81.3765 23.702C81.569 24.0126 81.8865 24.3039 82.3288 24.5756C82.7711 24.8473 83.4055 24.9831 84.2324 24.9831Z" fill="#194863"/>
<path d="M96.9721 19.0149C96.9721 20.3345 97.1646 21.4312 97.5493 22.3048C98.1646 23.6828 99.2222 24.3716 100.723 24.3716C101.588 24.3716 102.434 24.1873 103.261 23.8187C104.088 23.4304 104.8 22.8385 105.396 22.0427L106.954 23.2652C106.281 24.2358 105.367 25.0609 104.213 25.74C103.078 26.4197 101.674 26.759 100.001 26.759C98.5783 26.759 97.3567 26.4778 96.3377 25.9147C95.3377 25.3325 94.5685 24.4882 94.0299 23.3819C93.7415 22.7805 93.5299 22.1205 93.395 21.402C93.2606 20.6647 93.1934 19.8593 93.1934 18.9857C93.1934 16.2685 93.8087 14.1722 95.0394 12.6972C96.2705 11.2027 98.0302 10.4554 100.318 10.4554C101.357 10.4554 102.299 10.6204 103.146 10.9503C103.992 11.2609 104.703 11.717 105.28 12.3187C105.876 12.901 106.328 13.6288 106.636 14.5022C106.963 15.3562 107.127 16.3267 107.127 17.4136C107.127 17.6271 107.117 17.8406 107.097 18.0541C107.097 18.2482 107.078 18.5684 107.04 19.0149H96.9721ZM100.261 12.4642C98.2799 12.4642 97.1932 14.0267 97.0012 17.1516H103.347V16.3946C103.347 15.133 103.078 14.1625 102.54 13.4832C102.001 12.8039 101.242 12.4642 100.261 12.4642Z" fill="#194863"/>
<path d="M110.982 5.97366L108.761 5.42048V3.761H114.646V24.2572L116.867 24.8102V26.4699H108.761V24.8102L110.982 24.2572V5.97366Z" fill="#194863"/>
<path d="M127.898 25.7664C127.417 26.8919 126.975 27.8528 126.571 28.6487C126.186 29.4445 125.773 30.0848 125.331 30.57C124.908 31.075 124.436 31.434 123.917 31.6471C123.398 31.8804 122.763 31.9965 122.013 31.9965C121.552 31.9965 121.119 31.9288 120.715 31.793C120.33 31.6764 119.984 31.5017 119.677 31.2689C119.388 31.0361 119.157 30.7644 118.984 30.4539C118.811 30.1433 118.725 29.8035 118.725 29.4349C118.725 28.7552 118.917 28.1927 119.301 27.7463C119.705 27.3191 120.225 27.1055 120.859 27.1055C121.417 27.1055 121.84 27.2317 122.129 27.4842C122.436 27.7362 122.59 28.1149 122.59 28.6194C122.59 28.7163 122.561 28.833 122.503 28.9688C122.465 29.1243 122.388 29.2697 122.273 29.4056C122.176 29.5606 122.042 29.6868 121.869 29.7838C121.696 29.8812 121.494 29.9297 121.263 29.9297C121.301 30.1236 121.407 30.2499 121.581 30.3079C121.773 30.3857 121.946 30.4246 122.1 30.4246C122.292 30.4246 122.475 30.3953 122.648 30.3372C122.84 30.2983 123.023 30.1817 123.196 29.9878C123.388 29.8131 123.581 29.5414 123.773 29.1728C123.984 28.8234 124.205 28.3477 124.436 27.7463L124.783 26.6687L118.984 12.9271L117.253 12.374V10.7436H124.581L124.811 12.374L122.763 12.9271L126.312 23.0295H126.427L129.629 12.9271L127.956 12.374V10.7436H134.302V12.374L132.543 12.9271L127.898 25.7664Z" fill="#194863"/>
<path d="M0 0C4.26998 0 7.73151 3.55493 7.73151 7.94013V31.7605C3.46153 31.7605 0 28.2057 0 23.8202V0Z" fill="#0EB2A5"/>
<path d="M11.8016 7.94013C11.8016 3.55493 15.324 0 19.6691 0V13.2336C19.6691 17.6188 16.1467 21.1735 11.8016 21.1735V7.94013Z" fill="#0EB2A5"/>
</svg>
