<svg width="40" height="40" viewBox="0 0 40 40" fill="none" xmlns="http://www.w3.org/2000/svg">
<circle cx="20" cy="20" r="20" fill="#1E1E1E"/>
<path d="M19.9997 0C8.97196 0 0 8.97196 0 20C0 31.0284 8.97196 40 19.9997 40C31.0277 40 40 31.0284 40 20C39.9997 8.97196 31.0274 0 19.9997 0ZM19.9997 38.0274C10.0595 38.0274 1.97258 29.9405 1.97258 20C1.97258 10.0598 10.0595 1.97258 19.9997 1.97258C29.9398 1.97258 38.0274 10.0598 38.0274 20C38.0271 29.9405 29.9398 38.0274 19.9997 38.0274Z" fill="#FF00D6"/>
<path d="M24.6687 22.01C24.4678 21.9101 23.1617 21.3109 22.9607 21.211C22.7598 21.1111 22.5588 21.1111 22.3579 21.3109C22.157 21.5106 21.7551 22.1099 21.5541 22.3096C21.4537 22.5094 21.2527 22.5094 21.0518 22.4095C20.3485 22.1099 19.6452 21.7104 19.0424 21.211C18.54 20.7116 18.0377 20.1124 17.6358 19.5131C17.5353 19.3134 17.6358 19.1136 17.7362 19.0137C17.8367 18.9139 17.9372 18.7141 18.1381 18.6142C18.2386 18.5144 18.3391 18.3146 18.3391 18.2147C18.4395 18.1149 18.4395 17.9151 18.3391 17.8152C18.2386 17.7154 17.7362 16.5169 17.5353 16.0175C17.4348 15.3184 17.2339 15.3184 17.033 15.3184H16.5306C16.3297 15.3184 16.0282 15.5181 15.9278 15.618C15.325 16.2172 15.0235 16.9164 15.0235 17.7154C15.124 18.6142 15.4254 19.5131 16.0282 20.3121C17.1334 21.9101 18.54 23.2085 20.248 24.0075C20.7504 24.2072 21.1523 24.407 21.6546 24.5069C22.157 24.7066 22.6593 24.7066 23.2621 24.6067C23.9654 24.5069 24.5683 24.0075 24.9701 23.4082C25.1711 23.0087 25.1711 22.6092 25.0706 22.2097L24.6687 22.01ZM27.1805 12.9213C23.2621 9.02622 16.9325 9.02622 13.0141 12.9213C9.79906 16.1174 9.19623 21.0112 11.4066 24.9064L10 30L15.325 28.6017C16.832 29.4007 18.4395 29.8002 20.0471 29.8002C25.573 29.8002 29.9937 25.4057 29.9937 19.9126C30.0942 17.3159 28.989 14.819 27.1805 12.9213ZM24.4678 26.9039C23.1617 27.7029 21.6546 28.2022 20.0471 28.2022C18.54 28.2022 17.1334 27.8027 15.8273 27.1036L15.5259 26.9039L12.4113 27.7029L13.2151 24.7066L13.0141 24.407C10.6028 20.412 11.8085 15.4182 15.7268 12.9213C19.6452 10.4245 24.6687 11.7228 27.08 15.5181C29.4913 19.4132 28.3862 24.5069 24.4678 26.9039Z" fill="#FF00D6"/>
</svg>
